<?xml version="1.0" encoding="UTF-8"?>
<svg width="590px" height="590px" viewBox="0 0 590 590" version="1.1" xmlns="http://www.w3.org/2000/svg" xmlns:xlink="http://www.w3.org/1999/xlink">
    <!-- Generator: Sketch 57.1 (83088) - https://sketch.com -->
    <title>Elrond_Network_logo</title>
    <desc>Created with Sketch.</desc>
    <g id="Page-1" stroke="none" stroke-width="1" fill="none" fill-rule="evenodd">
        <g id="Elrond_Network_logo" fill="#1C46C2" fill-rule="nonzero">
            <g id="Group">
                <path d="M190.9,125.8 C222.1,105.5 256.6,95.2 294.4,95.2 C331.8,95.1 366.3,105.4 398,126.1 L464.4,59.7 C412.8,20.1 356.1,0.2 294.4,0.299624995 C232.4,0.4 175.8,20.1 124.5,59.6 L190.9,125.8 Z" id="Path"></path>
                <path d="M125.5,398.6 C104.4,366.6 93.9,332 94,294.9 C94.1,257.2 104.5,222.7 125.3,191.3 L59.1,125 C20.2,175.7 0.7,232.3 0.599619288,294.9 C0.5,356.9 20.1,413.5 59.3,464.9 L125.5,398.6 Z" id="Path"></path>
                <path d="M398.6,464.5 C367.1,485.7 332.6,496.5 295.1,496.8 C257,497.1 222.1,486.3 190.4,464.7 L124.4,530.7 C175.7,570.6 232.7,590.3 295.5,589.8 C357.6,589.3 414,569.6 464.7,530.6 L398.6,464.5 Z" id="Path"></path>
                <path d="M463.9,191.2 C485.2,223.3 495.6,258.5 495.2,296.8 C494.8,333.7 484.3,367.7 463.8,398.8 L530.1,465.1 C569.1,414.3 588.9,357.9 589.4,296 C589.9,233.2 570.2,176.2 530.3,124.9 L463.9,191.2 Z" id="Path"></path>
            </g>
            <g id="Group" transform="translate(52.000000, 51.000000)">
                <path d="M477,484.5 C476,483.5 475.5,482.3 475.5,481 L475.5,481 C475.5,479.7 476,478.5 477,477.5 L477,477.5 C478.9,475.6 482,475.6 484,477.5 L484,477.5 C485,478.5 485.5,479.7 485.5,481 L485.5,481 C485.5,482.3 485,483.5 484,484.5 L484,484.5 C483,485.5 481.8,485.9 480.5,485.9 L480.5,485.9 C479.2,485.9 478,485.4 477,484.5 Z M463,470.5 C462,469.5 461.6,468.3 461.6,467 L461.6,467 C461.6,465.7 462.1,464.5 463,463.5 L463,463.5 C464.9,461.6 468.1,461.6 470,463.5 L470,463.5 C471,464.5 471.4,465.7 471.4,467 L471.4,467 C471.4,468.3 470.9,469.5 470,470.5 L470,470.5 C469,471.5 467.8,471.9 466.5,471.9 L466.5,471.9 C465.3,471.9 464,471.5 463,470.5 Z M449.1,456.5 C448.1,455.5 447.6,454.3 447.6,453 L447.6,453 C447.6,451.7 448.1,450.5 449.1,449.5 L449.1,449.5 C451,447.6 454.2,447.6 456.1,449.5 L456.1,449.5 C457.1,450.5 457.5,451.7 457.5,453 L457.5,453 C457.5,454.3 457,455.5 456.1,456.5 L456.1,456.5 C455.1,457.5 453.9,458 452.6,458 L452.6,458 C451.3,458 450,457.5 449.1,456.5 Z M435.1,442.5 C434.1,441.5 433.7,440.3 433.7,439 L433.7,439 C433.7,437.7 434.2,436.5 435.1,435.5 L435.1,435.5 C437,433.6 440.2,433.6 442.1,435.5 L442.1,435.5 C443.1,436.5 443.5,437.7 443.5,439 L443.5,439 C443.5,440.3 443,441.5 442.1,442.5 L442.1,442.5 C441.1,443.5 439.9,444 438.6,444 L438.6,444 C437.3,444 436.1,443.5 435.1,442.5 Z M421.1,428.6 C420.1,427.6 419.6,426.4 419.6,425.1 L419.6,425.1 C419.6,423.8 420.1,422.6 421.1,421.6 L421.1,421.6 C423,419.7 426.1,419.7 428.1,421.6 L428.1,421.6 C429.1,422.6 429.5,423.8 429.5,425.1 L429.5,425.1 C429.5,426.4 429,427.6 428.1,428.6 L428.1,428.6 C427.1,429.6 425.9,430 424.6,430 L424.6,430 C423.4,430 422.1,429.5 421.1,428.6 Z M407.2,414.6 C406.2,413.6 405.7,412.4 405.7,411.1 L405.7,411.1 C405.7,409.8 406.2,408.6 407.2,407.6 L407.2,407.6 C409.1,405.7 412.2,405.7 414.2,407.6 L414.2,407.6 C415.2,408.6 415.7,409.8 415.7,411.1 L415.7,411.1 C415.7,412.4 415.2,413.6 414.2,414.6 L414.2,414.6 C413.2,415.6 412,416 410.7,416 L410.7,416 C409.4,416 408.1,415.6 407.2,414.6 Z M393.2,400.6 C392.2,399.6 391.8,398.4 391.8,397.1 L391.8,397.1 C391.8,395.8 392.3,394.6 393.2,393.6 L393.2,393.6 C395.1,391.7 398.3,391.7 400.2,393.6 L400.2,393.6 C401.2,394.6 401.7,395.8 401.7,397.1 L401.7,397.1 C401.7,398.4 401.2,399.6 400.2,400.6 L400.2,400.6 C399.2,401.6 398,402.1 396.7,402.1 L396.7,402.1 C395.4,402.1 394.2,401.6 393.2,400.6 Z M379.2,386.7 C378.2,385.7 377.7,384.5 377.7,383.2 L377.7,383.2 C377.7,381.9 378.2,380.7 379.2,379.7 L379.2,379.7 C381.1,377.8 384.3,377.8 386.2,379.7 L386.2,379.7 C387.2,380.7 387.6,381.9 387.6,383.2 L387.6,383.2 C387.6,384.5 387.1,385.7 386.2,386.7 L386.2,386.7 C385.2,387.7 384,388.1 382.7,388.1 L382.7,388.1 C381.5,388.1 380.2,387.6 379.2,386.7 Z M365.2,372.7 C364.2,371.7 363.7,370.5 363.7,369.2 L363.7,369.2 C363.7,367.9 364.2,366.7 365.2,365.7 L365.2,365.7 C367.1,363.8 370.3,363.8 372.2,365.7 L372.2,365.7 C373.2,366.7 373.7,367.9 373.7,369.2 L373.7,369.2 C373.7,370.5 373.2,371.7 372.2,372.7 L372.2,372.7 C371.2,373.7 370,374.2 368.7,374.2 L368.7,374.2 C367.5,374.1 366.2,373.6 365.2,372.7 Z M351.3,358.7 C350.3,357.7 349.8,356.5 349.8,355.2 L349.8,355.2 C349.8,353.9 350.3,352.7 351.3,351.7 L351.3,351.7 C353.2,349.8 356.3,349.8 358.3,351.7 L358.3,351.7 C359.3,352.7 359.8,353.9 359.8,355.2 L359.8,355.2 C359.8,356.5 359.3,357.7 358.3,358.7 L358.3,358.7 C357.3,359.7 356.1,360.2 354.8,360.2 L354.8,360.2 C353.5,360.2 352.2,359.7 351.3,358.7 Z M337.3,344.8 C336.3,343.8 335.8,342.6 335.8,341.3 L335.8,341.3 C335.8,340 336.3,338.8 337.3,337.8 L337.3,337.8 C339.2,335.9 342.3,335.9 344.3,337.8 L344.3,337.8 C345.3,338.8 345.8,340 345.8,341.3 L345.8,341.3 C345.8,342.6 345.3,343.8 344.3,344.8 L344.3,344.8 C343.3,345.8 342.1,346.2 340.8,346.2 L340.8,346.2 C339.5,346.2 338.3,345.7 337.3,344.8 Z M323.3,330.8 C322.3,329.8 321.9,328.6 321.9,327.3 L321.9,327.3 C321.9,326 322.4,324.8 323.3,323.8 L323.3,323.8 C325.2,321.9 328.4,321.9 330.3,323.8 L330.3,323.8 C331.3,324.8 331.8,326 331.8,327.3 L331.8,327.3 C331.8,328.6 331.3,329.8 330.3,330.8 L330.3,330.8 C329.3,331.8 328.1,332.3 326.8,332.3 L326.8,332.3 C325.6,332.2 324.3,331.7 323.3,330.8 Z M309.4,316.8 C308.4,315.8 308,314.6 308,313.3 L308,313.3 C308,312 308.5,310.8 309.4,309.8 L309.4,309.8 C311.3,307.9 314.5,307.9 316.4,309.8 L316.4,309.8 C317.4,310.8 317.9,312 317.9,313.3 L317.9,313.3 C317.9,314.6 317.4,315.8 316.4,316.8 L316.4,316.8 C315.4,317.8 314.2,318.3 312.9,318.3 L312.9,318.3 C311.6,318.2 310.3,317.8 309.4,316.8 Z M295.4,302.8 C294.4,301.8 293.9,300.6 293.9,299.3 L293.9,299.3 C293.9,298 294.4,296.8 295.4,295.8 L295.4,295.8 C297.3,293.9 300.5,293.9 302.4,295.8 L302.4,295.8 C303.4,296.8 303.8,298 303.8,299.3 L303.8,299.3 C303.8,300.6 303.3,301.8 302.4,302.8 L302.4,302.8 C301.4,303.8 300.2,304.3 298.9,304.3 L298.9,304.3 C297.6,304.3 296.3,303.8 295.4,302.8 Z M281.4,288.9 C280.4,287.9 279.9,286.7 279.9,285.4 L279.9,285.4 C279.9,284.1 280.4,282.9 281.4,281.9 L281.4,281.9 C283.3,280 286.5,280 288.4,281.9 L288.4,281.9 C289.4,282.9 289.9,284.1 289.9,285.4 L289.9,285.4 C289.9,286.7 289.4,287.9 288.4,288.9 L288.4,288.9 C287.4,289.9 286.2,290.4 284.9,290.4 L284.9,290.4 C283.6,290.3 282.4,289.8 281.4,288.9 Z M267.5,274.9 C266.5,273.9 266,272.7 266,271.4 L266,271.4 C266,270.1 266.5,268.9 267.5,267.9 L267.5,267.9 C269.4,266 272.5,266 274.5,267.9 L274.5,267.9 C275.5,268.9 276,270.1 276,271.4 L276,271.4 C276,272.7 275.5,273.9 274.5,274.9 L274.5,274.9 C273.5,275.9 272.3,276.3 271,276.3 L271,276.3 C269.7,276.3 268.4,275.8 267.5,274.9 Z M253.5,260.9 C252.5,259.9 252.1,258.7 252.1,257.4 L252.1,257.4 C252.1,256.1 252.6,254.9 253.5,253.9 L253.5,253.9 C255.4,252 258.6,252 260.5,253.9 L260.5,253.9 C261.5,254.9 262,256.1 262,257.4 L262,257.4 C262,258.7 261.5,259.9 260.5,260.9 L260.5,260.9 C259.5,261.9 258.3,262.3 257,262.3 L257,262.3 C255.7,262.4 254.4,261.9 253.5,260.9 Z M239.5,246.9 C238.5,245.9 238.1,244.7 238.1,243.4 L238.1,243.4 C238.1,242.1 238.6,240.9 239.5,239.9 L239.5,239.9 C241.4,238 244.6,238 246.5,239.9 L246.5,239.9 C247.5,240.9 247.9,242.1 247.9,243.4 L247.9,243.4 C247.9,244.7 247.4,245.9 246.5,246.9 L246.5,246.9 C245.5,247.9 244.3,248.4 243,248.4 L243,248.4 C241.7,248.4 240.5,247.9 239.5,246.9 Z M225.5,233 C224.5,232 224,230.8 224,229.5 L224,229.5 C224,228.2 224.5,227 225.5,226 L225.5,226 C227.4,224.1 230.6,224.1 232.5,226 L232.5,226 C233.5,227 233.9,228.2 233.9,229.5 L233.9,229.5 C233.9,230.8 233.4,232 232.5,233 L232.5,233 C231.5,234 230.3,234.5 229,234.5 L229,234.5 C227.8,234.4 226.5,233.9 225.5,233 Z M211.6,219 C210.6,218 210.1,216.8 210.1,215.5 L210.1,215.5 C210.1,214.2 210.6,213 211.6,212 L211.6,212 C213.5,210.1 216.7,210.1 218.6,212 L218.6,212 C219.6,213 220,214.2 220,215.5 L220,215.5 C220,216.8 219.5,218 218.6,219 L218.6,219 C217.6,220 216.4,220.4 215.1,220.4 L215.1,220.4 C213.8,220.4 212.5,220 211.6,219 Z M197.6,205 C196.6,204 196.1,202.8 196.1,201.5 L196.1,201.5 C196.1,200.2 196.6,199 197.6,198 L197.6,198 C199.5,196.1 202.6,196.1 204.6,198 L204.6,198 C205.6,199 206.1,200.2 206.1,201.5 L206.1,201.5 C206.1,202.8 205.6,204 204.6,205 L204.6,205 C203.6,206 202.4,206.5 201.1,206.5 L201.1,206.5 C199.8,206.5 198.5,206 197.6,205 Z M183.6,191.1 C182.6,190.1 182.2,188.9 182.2,187.6 L182.2,187.6 C182.2,186.3 182.7,185.1 183.6,184.1 L183.6,184.1 C185.5,182.2 188.7,182.2 190.6,184.1 L190.6,184.1 C191.6,185.1 192.1,186.3 192.1,187.6 L192.1,187.6 C192.1,188.9 191.6,190.1 190.6,191.1 L190.6,191.1 C189.6,192.1 188.4,192.5 187.1,192.5 L187.1,192.5 C185.8,192.5 184.6,192 183.6,191.1 Z M169.6,177.1 C168.6,176.1 168.1,174.9 168.1,173.6 L168.1,173.6 C168.1,172.3 168.6,171.1 169.6,170.1 L169.6,170.1 C171.5,168.2 174.6,168.2 176.6,170.1 L176.6,170.1 C177.6,171.1 178,172.3 178,173.6 L178,173.6 C178,174.9 177.5,176.1 176.6,177.1 L176.6,177.1 C175.6,178.1 174.4,178.5 173.1,178.5 L173.1,178.5 C171.9,178.5 170.6,178 169.6,177.1 Z M155.7,163.1 C154.7,162.1 154.3,160.9 154.3,159.6 L154.3,159.6 C154.3,158.3 154.8,157.1 155.7,156.1 L155.7,156.1 C157.6,154.2 160.8,154.2 162.7,156.1 L162.7,156.1 C163.7,157.1 164.2,158.3 164.2,159.6 L164.2,159.6 C164.2,160.9 163.7,162.1 162.7,163.1 L162.7,163.1 C161.7,164.1 160.5,164.6 159.2,164.6 L159.2,164.6 C157.9,164.6 156.6,164.1 155.7,163.1 Z M141.7,149.1 C140.7,148.1 140.3,146.9 140.3,145.6 L140.3,145.6 C140.3,144.3 140.8,143.1 141.7,142.1 L141.7,142.1 C143.6,140.2 146.8,140.2 148.7,142.1 L148.7,142.1 C149.7,143.1 150.1,144.3 150.1,145.6 L150.1,145.6 C150.1,146.9 149.6,148.1 148.7,149.1 L148.7,149.1 C147.7,150.1 146.5,150.6 145.2,150.6 L145.2,150.6 C143.9,150.6 142.7,150.1 141.7,149.1 Z M127.7,135.2 C126.7,134.2 126.2,133 126.2,131.7 L126.2,131.7 C126.2,130.4 126.7,129.2 127.7,128.2 L127.7,128.2 C129.6,126.3 132.8,126.3 134.7,128.2 L134.7,128.2 C135.7,129.2 136.1,130.4 136.1,131.7 L136.1,131.7 C136.1,133 135.6,134.2 134.7,135.2 L134.7,135.2 C133.7,136.2 132.5,136.6 131.2,136.6 L131.2,136.6 C130,136.6 128.7,136.1 127.7,135.2 Z M113.8,121.2 C112.8,120.2 112.4,119 112.4,117.7 L112.4,117.7 C112.4,116.4 112.9,115.2 113.8,114.2 L113.8,114.2 C115.7,112.3 118.9,112.3 120.8,114.2 L120.8,114.2 C121.8,115.2 122.3,116.4 122.3,117.7 L122.3,117.7 C122.3,119 121.8,120.2 120.8,121.2 L120.8,121.2 C119.8,122.2 118.6,122.6 117.3,122.6 L117.3,122.6 C116,122.6 114.7,122.2 113.8,121.2 Z M99.8,107.2 C98.8,106.2 98.3,105 98.3,103.7 L98.3,103.7 C98.3,102.4 98.8,101.2 99.8,100.2 L99.8,100.2 C101.7,98.3 104.8,98.3 106.8,100.2 L106.8,100.2 C107.8,101.2 108.2,102.4 108.2,103.7 L108.2,103.7 C108.2,105 107.7,106.2 106.8,107.2 L106.8,107.2 C105.8,108.2 104.6,108.7 103.3,108.7 L103.3,108.7 C102,108.7 100.8,108.2 99.8,107.2 Z M85.8,93.2 C84.8,92.2 84.4,91 84.4,89.7 L84.4,89.7 C84.4,88.4 84.9,87.2 85.8,86.2 L85.8,86.2 C87.7,84.3 90.9,84.3 92.8,86.2 L92.8,86.2 C93.8,87.2 94.3,88.4 94.3,89.7 L94.3,89.7 C94.3,91 93.8,92.2 92.8,93.2 L92.8,93.2 C91.8,94.2 90.6,94.6 89.3,94.6 L89.3,94.6 C88,94.7 86.8,94.2 85.8,93.2 Z M71.8,79.3 C70.8,78.3 70.3,77.1 70.3,75.8 L70.3,75.8 C70.3,74.5 70.8,73.3 71.8,72.3 L71.8,72.3 C73.7,70.4 76.9,70.4 78.8,72.3 L78.8,72.3 C79.8,73.3 80.2,74.5 80.2,75.8 L80.2,75.8 C80.2,77.1 79.7,78.3 78.8,79.3 L78.8,79.3 C77.8,80.3 76.6,80.8 75.3,80.8 L75.3,80.8 C74.1,80.7 72.8,80.2 71.8,79.3 Z M57.9,65.3 C56.9,64.3 56.5,63.1 56.5,61.8 L56.5,61.8 C56.5,60.5 57,59.3 57.9,58.3 L57.9,58.3 C59.8,56.4 63,56.4 64.9,58.3 L64.9,58.3 C65.9,59.3 66.4,60.5 66.4,61.8 L66.4,61.8 C66.4,63.1 65.9,64.3 64.9,65.3 L64.9,65.3 C63.9,66.3 62.7,66.7 61.4,66.7 L61.4,66.7 C60.1,66.8 58.8,66.3 57.9,65.3 Z M43.9,51.3 C42.9,50.3 42.4,49.1 42.4,47.8 L42.4,47.8 C42.4,46.5 42.9,45.3 43.9,44.3 L43.9,44.3 C45.8,42.4 48.9,42.4 50.9,44.3 L50.9,44.3 C51.9,45.3 52.3,46.5 52.3,47.8 L52.3,47.8 C52.3,49.1 51.8,50.3 50.9,51.3 L50.9,51.3 C49.9,52.3 48.7,52.8 47.4,52.8 L47.4,52.8 C46.1,52.8 44.9,52.3 43.9,51.3 Z" id="Shape"></path>
                <path d="M2,484.5 C1,483.5 0.6,482.3 0.6,481 L0.6,481 C0.6,479.7 1.1,478.5 2,477.5 L2,477.5 C3.9,475.6 7.1,475.6 9,477.5 L9,477.5 C10,478.5 10.5,479.7 10.5,481 L10.5,481 C10.5,482.3 10,483.5 9,484.5 L9,484.5 C8,485.5 6.8,485.9 5.5,485.9 L5.5,485.9 C4.2,485.9 2.9,485.4 2,484.5 Z M16,470.5 C15,469.5 14.5,468.3 14.5,467 L14.5,467 C14.5,465.7 15,464.5 16,463.5 L16,463.5 C17.9,461.6 21.1,461.6 23,463.5 L23,463.5 C24,464.5 24.4,465.7 24.4,467 L24.4,467 C24.4,468.3 23.9,469.5 23,470.5 L23,470.5 C22,471.5 20.8,471.9 19.5,471.9 L19.5,471.9 C18.2,471.9 16.9,471.5 16,470.5 Z M29.9,456.5 C28.9,455.5 28.5,454.3 28.5,453 L28.5,453 C28.5,451.7 29,450.5 29.9,449.5 L29.9,449.5 C31.8,447.6 35,447.6 36.9,449.5 L36.9,449.5 C37.9,450.5 38.3,451.7 38.3,453 L38.3,453 C38.3,454.3 37.8,455.5 36.9,456.5 L36.9,456.5 C35.9,457.5 34.7,458 33.4,458 L33.4,458 C32.2,458 30.9,457.5 29.9,456.5 Z M43.9,442.5 C42.9,441.5 42.5,440.3 42.5,439 L42.5,439 C42.5,437.7 43,436.5 43.9,435.5 L43.9,435.5 C45.8,433.6 49,433.6 50.9,435.5 L50.9,435.5 C51.9,436.5 52.4,437.7 52.4,439 L52.4,439 C52.4,440.3 51.9,441.5 50.9,442.5 L50.9,442.5 C49.9,443.5 48.7,444 47.4,444 L47.4,444 C46.1,444 44.9,443.5 43.9,442.5 Z M57.9,428.6 C56.9,427.6 56.4,426.4 56.4,425.1 L56.4,425.1 C56.4,423.8 56.9,422.6 57.9,421.6 L57.9,421.6 C59.8,419.7 62.9,419.7 64.9,421.6 L64.9,421.6 C65.9,422.6 66.4,423.8 66.4,425.1 L66.4,425.1 C66.4,426.4 65.9,427.6 64.9,428.6 L64.9,428.6 C63.9,429.6 62.7,430 61.4,430 L61.4,430 C60.1,430 58.8,429.5 57.9,428.6 Z M71.8,414.6 C70.8,413.6 70.4,412.4 70.4,411.1 L70.4,411.1 C70.4,409.8 70.9,408.6 71.8,407.6 L71.8,407.6 C73.7,405.7 76.9,405.7 78.8,407.6 L78.8,407.6 C79.8,408.6 80.3,409.8 80.3,411.1 L80.3,411.1 C80.3,412.4 79.8,413.6 78.8,414.6 L78.8,414.6 C77.8,415.6 76.6,416 75.3,416 L75.3,416 C74.1,416 72.8,415.6 71.8,414.6 Z M85.8,400.6 C84.8,399.6 84.3,398.4 84.3,397.1 L84.3,397.1 C84.3,395.8 84.8,394.6 85.8,393.6 L85.8,393.6 C87.7,391.7 90.9,391.7 92.8,393.6 L92.8,393.6 C93.8,394.6 94.2,395.8 94.2,397.1 L94.2,397.1 C94.2,398.4 93.7,399.6 92.8,400.6 L92.8,400.6 C91.8,401.6 90.6,402.1 89.3,402.1 L89.3,402.1 C88,402.1 86.8,401.6 85.8,400.6 Z M99.8,386.7 C98.8,385.7 98.3,384.5 98.3,383.2 L98.3,383.2 C98.3,381.9 98.8,380.7 99.8,379.7 L99.8,379.7 C101.7,377.8 104.9,377.8 106.8,379.7 L106.8,379.7 C107.8,380.7 108.3,381.9 108.3,383.2 L108.3,383.2 C108.3,384.5 107.8,385.7 106.8,386.7 L106.8,386.7 C105.8,387.7 104.6,388.1 103.3,388.1 L103.3,388.1 C102,388.1 100.8,387.6 99.8,386.7 Z M113.8,372.7 C112.8,371.7 112.4,370.5 112.4,369.2 L112.4,369.2 C112.4,367.9 112.9,366.7 113.8,365.7 L113.8,365.7 C115.7,363.8 118.9,363.8 120.8,365.7 L120.8,365.7 C121.8,366.7 122.2,367.9 122.2,369.2 L122.2,369.2 C122.2,370.5 121.7,371.7 120.8,372.7 L120.8,372.7 C119.8,373.7 118.6,374.2 117.3,374.2 L117.3,374.2 C116,374.1 114.7,373.6 113.8,372.7 Z M127.7,358.7 C126.7,357.7 126.3,356.5 126.3,355.2 L126.3,355.2 C126.3,353.9 126.8,352.7 127.7,351.7 L127.7,351.7 C129.6,349.8 132.8,349.8 134.7,351.7 L134.7,351.7 C135.7,352.7 136.2,353.9 136.2,355.2 L136.2,355.2 C136.2,356.5 135.7,357.7 134.7,358.7 L134.7,358.7 C133.7,359.7 132.5,360.2 131.2,360.2 L131.2,360.2 C130,360.2 128.7,359.7 127.7,358.7 Z M141.7,344.8 C140.7,343.8 140.2,342.6 140.2,341.3 L140.2,341.3 C140.2,340 140.7,338.8 141.7,337.8 L141.7,337.8 C143.6,335.9 146.7,335.9 148.7,337.8 L148.7,337.8 C149.7,338.8 150.1,340 150.1,341.3 L150.1,341.3 C150.1,342.6 149.6,343.8 148.7,344.8 L148.7,344.8 C147.7,345.8 146.5,346.2 145.2,346.2 L145.2,346.2 C143.9,346.2 142.7,345.7 141.7,344.8 Z M155.7,330.8 C154.7,329.8 154.3,328.6 154.3,327.3 L154.3,327.3 C154.3,326 154.8,324.8 155.7,323.8 L155.7,323.8 C157.6,321.9 160.8,321.9 162.7,323.8 L162.7,323.8 C163.7,324.8 164.1,326 164.1,327.3 L164.1,327.3 C164.1,328.6 163.6,329.8 162.7,330.8 L162.7,330.8 C161.7,331.8 160.5,332.3 159.2,332.3 L159.2,332.3 C157.9,332.2 156.6,331.7 155.7,330.8 Z M169.6,316.8 C168.6,315.8 168.1,314.6 168.1,313.3 L168.1,313.3 C168.1,312 168.6,310.8 169.6,309.8 L169.6,309.8 C171.5,307.9 174.7,307.9 176.6,309.8 L176.6,309.8 C177.6,310.8 178,312 178,313.3 L178,313.3 C178,314.6 177.5,315.8 176.6,316.8 L176.6,316.8 C175.6,317.8 174.4,318.3 173.1,318.3 L173.1,318.3 C171.9,318.2 170.6,317.8 169.6,316.8 Z M183.6,302.8 C182.6,301.8 182.2,300.6 182.2,299.3 L182.2,299.3 C182.2,298 182.7,296.8 183.6,295.8 L183.6,295.8 C185.5,293.9 188.7,293.9 190.6,295.8 L190.6,295.8 C191.6,296.8 192.1,298 192.1,299.3 L192.1,299.3 C192.1,300.6 191.6,301.8 190.6,302.8 L190.6,302.8 C189.6,303.8 188.4,304.3 187.1,304.3 L187.1,304.3 C185.8,304.3 184.6,303.8 183.6,302.8 Z M197.6,288.9 C196.6,287.9 196.2,286.7 196.2,285.4 L196.2,285.4 C196.2,284.1 196.7,282.9 197.6,281.9 L197.6,281.9 C199.5,280 202.7,280 204.6,281.9 L204.6,281.9 C205.6,282.9 206.1,284.1 206.1,285.4 L206.1,285.4 C206.1,286.7 205.6,287.9 204.6,288.9 L204.6,288.9 C203.6,289.9 202.4,290.4 201.1,290.4 L201.1,290.4 C199.8,290.3 198.6,289.8 197.6,288.9 Z M211.6,274.9 C210.6,273.9 210.1,272.7 210.1,271.4 L210.1,271.4 C210.1,270.1 210.6,268.9 211.6,267.9 L211.6,267.9 C213.5,266 216.6,266 218.6,267.9 L218.6,267.9 C219.6,268.9 220.1,270.1 220.1,271.4 L220.1,271.4 C220.1,272.7 219.6,273.9 218.6,274.9 L218.6,274.9 C217.6,275.9 216.4,276.3 215.1,276.3 L215.1,276.3 C213.8,276.3 212.5,275.8 211.6,274.9 Z M225.5,260.9 C224.5,259.9 224,258.7 224,257.4 L224,257.4 C224,256.1 224.5,254.9 225.5,253.9 L225.5,253.9 C227.4,252 230.5,252 232.5,253.9 L232.5,253.9 C233.5,254.9 233.9,256.1 233.9,257.4 L233.9,257.4 C233.9,258.7 233.4,259.9 232.5,260.9 L232.5,260.9 C231.5,261.9 230.3,262.3 229,262.3 L229,262.3 C227.8,262.4 226.5,261.9 225.5,260.9 Z M239.5,246.9 C238.5,245.9 238.1,244.7 238.1,243.4 L238.1,243.4 C238.1,242.1 238.6,240.9 239.5,239.9 L239.5,239.9 C241.4,238 244.6,238 246.5,239.9 L246.5,239.9 C247.5,240.9 247.9,242.1 247.9,243.4 L247.9,243.4 C247.9,244.7 247.4,245.9 246.5,246.9 L246.5,246.9 C245.5,247.9 244.3,248.4 243,248.4 L243,248.4 C241.7,248.4 240.5,247.9 239.5,246.9 Z M253.5,233 C252.5,232 252.1,230.8 252.1,229.5 L252.1,229.5 C252.1,228.2 252.6,227 253.5,226 L253.5,226 C255.4,224.1 258.6,224.1 260.5,226 L260.5,226 C261.5,227 261.9,228.2 261.9,229.5 L261.9,229.5 C261.9,230.8 261.4,232 260.5,233 L260.5,233 C259.5,234 258.3,234.5 257,234.5 L257,234.5 C255.7,234.4 254.5,233.9 253.5,233 Z M267.5,219 C266.5,218 266.1,216.8 266.1,215.5 L266.1,215.5 C266.1,214.2 266.6,213 267.5,212 L267.5,212 C269.4,210.1 272.6,210.1 274.5,212 L274.5,212 C275.5,213 276,214.2 276,215.5 L276,215.5 C276,216.8 275.5,218 274.5,219 L274.5,219 C273.5,220 272.3,220.4 271,220.4 L271,220.4 C269.7,220.4 268.4,220 267.5,219 Z M281.4,205 C280.4,204 279.9,202.8 279.9,201.5 L279.9,201.5 C279.9,200.2 280.4,199 281.4,198 L281.4,198 C283.3,196.1 286.4,196.1 288.4,198 L288.4,198 C289.4,199 289.8,200.2 289.8,201.5 L289.8,201.5 C289.8,202.8 289.3,204 288.4,205 L288.4,205 C287.4,206 286.2,206.4 284.9,206.4 L284.9,206.4 C283.6,206.5 282.4,206 281.4,205 Z M295.4,191.1 C294.4,190.1 294,188.9 294,187.6 L294,187.6 C294,186.3 294.5,185.1 295.4,184.1 L295.4,184.1 C297.3,182.2 300.5,182.2 302.4,184.1 L302.4,184.1 C303.4,185.1 303.9,186.3 303.9,187.6 L303.9,187.6 C303.9,188.9 303.4,190.1 302.4,191.1 L302.4,191.1 C301.4,192.1 300.2,192.5 298.9,192.5 L298.9,192.5 C297.6,192.5 296.4,192 295.4,191.1 Z M309.4,177.1 C308.4,176.1 307.9,174.9 307.9,173.6 L307.9,173.6 C307.9,172.3 308.4,171.1 309.4,170.1 L309.4,170.1 C311.3,168.2 314.5,168.2 316.4,170.1 L316.4,170.1 C317.4,171.1 317.9,172.3 317.9,173.6 L317.9,173.6 C317.9,174.9 317.4,176.1 316.4,177.1 L316.4,177.1 C315.4,178.1 314.2,178.6 312.9,178.6 L312.9,178.6 C311.6,178.5 310.3,178 309.4,177.1 Z M323.3,163.1 C322.3,162.1 321.8,160.9 321.8,159.6 L321.8,159.6 C321.8,158.3 322.3,157.1 323.3,156.1 L323.3,156.1 C325.2,154.2 328.4,154.2 330.3,156.1 L330.3,156.1 C331.3,157.1 331.7,158.3 331.7,159.6 L331.7,159.6 C331.7,160.9 331.2,162.1 330.3,163.1 L330.3,163.1 C329.3,164.1 328.1,164.6 326.8,164.6 L326.8,164.6 C325.6,164.6 324.3,164.1 323.3,163.1 Z M337.3,149.1 C336.3,148.1 335.9,146.9 335.9,145.6 L335.9,145.6 C335.9,144.3 336.4,143.1 337.3,142.1 L337.3,142.1 C339.2,140.2 342.4,140.2 344.3,142.1 L344.3,142.1 C345.3,143.1 345.8,144.3 345.8,145.6 L345.8,145.6 C345.8,146.9 345.3,148.1 344.3,149.1 L344.3,149.1 C343.3,150.1 342.1,150.6 340.8,150.6 L340.8,150.6 C339.5,150.6 338.3,150.1 337.3,149.1 Z M351.3,135.2 C350.3,134.2 349.8,133 349.8,131.7 L349.8,131.7 C349.8,130.4 350.3,129.2 351.3,128.2 L351.3,128.2 C353.2,126.3 356.3,126.3 358.3,128.2 L358.3,128.2 C359.3,129.2 359.8,130.4 359.8,131.7 L359.8,131.7 C359.8,133 359.3,134.2 358.3,135.2 L358.3,135.2 C357.3,136.2 356.1,136.6 354.8,136.6 L354.8,136.6 C353.5,136.6 352.2,136.1 351.3,135.2 Z M365.3,121.2 C364.3,120.2 363.8,119 363.8,117.7 L363.8,117.7 C363.8,116.4 364.3,115.2 365.3,114.2 L365.3,114.2 C367.2,112.3 370.3,112.3 372.3,114.2 L372.3,114.2 C373.3,115.2 373.7,116.4 373.7,117.7 L373.7,117.7 C373.7,119 373.2,120.2 372.3,121.2 L372.3,121.2 C371.3,122.2 370.1,122.6 368.8,122.6 L368.8,122.6 C367.5,122.6 366.2,122.2 365.3,121.2 Z M379.2,107.2 C378.2,106.2 377.8,105 377.8,103.7 L377.8,103.7 C377.8,102.4 378.3,101.2 379.2,100.2 L379.2,100.2 C381.1,98.3 384.3,98.3 386.2,100.2 L386.2,100.2 C387.2,101.2 387.7,102.4 387.7,103.7 L387.7,103.7 C387.7,105 387.2,106.2 386.2,107.2 L386.2,107.2 C385.2,108.2 384,108.7 382.7,108.7 L382.7,108.7 C381.5,108.7 380.2,108.2 379.2,107.2 Z M393.2,93.2 C392.2,92.2 391.7,91 391.7,89.7 L391.7,89.7 C391.7,88.4 392.2,87.2 393.2,86.2 L393.2,86.2 C395.1,84.3 398.3,84.3 400.2,86.2 L400.2,86.2 C401.2,87.2 401.6,88.4 401.6,89.7 L401.6,89.7 C401.6,91 401.1,92.2 400.2,93.2 L400.2,93.2 C399.2,94.2 398,94.6 396.7,94.6 L396.7,94.6 C395.4,94.7 394.2,94.2 393.2,93.2 Z M407.2,79.3 C406.2,78.3 405.8,77.1 405.8,75.8 L405.8,75.8 C405.8,74.5 406.3,73.3 407.2,72.3 L407.2,72.3 C409.1,70.4 412.3,70.4 414.2,72.3 L414.2,72.3 C415.2,73.3 415.6,74.5 415.6,75.8 L415.6,75.8 C415.6,77.1 415.1,78.3 414.2,79.3 L414.2,79.3 C413.2,80.3 412,80.8 410.7,80.8 L410.7,80.8 C409.4,80.7 408.1,80.2 407.2,79.3 Z M421.1,65.3 C420.1,64.3 419.7,63.1 419.7,61.8 L419.7,61.8 C419.7,60.5 420.2,59.3 421.1,58.3 L421.1,58.3 C423,56.4 426.2,56.4 428.1,58.3 L428.1,58.3 C429.1,59.3 429.6,60.5 429.6,61.8 L429.6,61.8 C429.6,63.1 429.1,64.3 428.1,65.3 L428.1,65.3 C427.1,66.3 425.9,66.7 424.6,66.7 L424.6,66.7 C423.4,66.8 422.1,66.3 421.1,65.3 Z M435.1,51.3 C434.1,50.3 433.6,49.1 433.6,47.8 L433.6,47.8 C433.6,46.5 434.1,45.3 435.1,44.3 L435.1,44.3 C437,42.4 440.1,42.4 442.1,44.3 L442.1,44.3 C443.1,45.3 443.6,46.5 443.6,47.8 L443.6,47.8 C443.6,49.1 443.1,50.3 442.1,51.3 L442.1,51.3 C441.1,52.3 439.9,52.8 438.6,52.8 L438.6,52.8 C437.3,52.8 436.1,52.3 435.1,51.3 Z M449.1,37.4 C448.1,36.4 447.6,35.2 447.6,33.9 L447.6,33.9 C447.6,32.6 448.1,31.4 449.1,30.4 L449.1,30.4 C451,28.5 454.2,28.5 456.1,30.4 L456.1,30.4 C457.1,31.4 457.6,32.6 457.6,33.9 L457.6,33.9 C457.6,35.2 457.1,36.4 456.1,37.4 L456.1,37.4 C455.1,38.4 453.9,38.8 452.6,38.8 L452.6,38.8 C451.3,38.8 450,38.3 449.1,37.4 Z M463.1,23.4 C462.1,22.4 461.6,21.2 461.6,19.9 L461.6,19.9 C461.6,18.6 462.1,17.4 463.1,16.4 L463.1,16.4 C465,14.5 468.2,14.5 470.1,16.4 L470.1,16.4 C471.1,17.4 471.5,18.6 471.5,19.9 L471.5,19.9 C471.5,21.2 471,22.4 470.1,23.4 L470.1,23.4 C469.1,24.4 467.9,24.8 466.6,24.8 L466.6,24.8 C465.3,24.8 464,24.4 463.1,23.4 Z M477,9.4 C475.1,7.5 475.1,4.3 477,2.4 L477,2.4 C478.9,0.5 482.1,0.5 484,2.4 L484,2.4 C485.9,4.3 485.9,7.4 484,9.4 L484,9.4 C483,10.4 481.8,10.8 480.5,10.8 L480.5,10.8 C479.3,10.9 478,10.4 477,9.4 Z" id="Shape"></path>
            </g>
            <circle id="Oval" cx="532.8" cy="531.9" r="46.1"></circle>
            <circle id="Oval" cx="57.8" cy="532" r="46.1"></circle>
            <circle id="Oval" cx="533.2" cy="56.5" r="46.1"></circle>
            <circle id="Oval" cx="56.6" cy="55.7" r="46.1"></circle>
        </g>
    </g>
</svg>