<?xml version="1.0" encoding="UTF-8"?>
<svg width="349px" height="275px" viewBox="0 0 349 275" version="1.1" xmlns="http://www.w3.org/2000/svg" xmlns:xlink="http://www.w3.org/1999/xlink">
    <!-- Generator: Sketch 57.1 (83088) - https://sketch.com -->
    <title>Farm symbol</title>
    <desc>Created with Sketch.</desc>
    <g id="Page-1" stroke="none" stroke-width="1" fill="none" fill-rule="evenodd">
        <g id="Farm-symbol">
            <circle id="wheel-copy" stroke="#000000" stroke-width="30" cx="290" cy="216" r="44"></circle>
            <circle id="wheel" stroke="#000000" stroke-width="30" cx="82.5" cy="192.5" r="67.5"></circle>
            <path d="M201.303355,2.34314575 L205.296,6.33579066 C208.420194,9.459985 208.420194,14.5253048 205.296,17.6494992 L184.913055,38.0309516 C185.76692,38.4174681 186.566829,38.9616887 187.268754,39.6636135 L203.605,56 L291,56 C310.329966,56 326,71.6700338 326,91 L326.000545,158.491411 C315.07219,148.849893 300.719253,143 285,143 C250.758346,143 223,170.758346 223,205 L189,205 C183.789093,205 178.844159,203.861234 174.400483,201.818988 C176.091825,196.175069 177,190.193592 177,184 C177,164.535891 168.030812,147.166648 154.000255,135.801251 L154.00018,133.811983 C175.319823,131.79766 192,113.846762 192,92 C192,78.4226619 185.55748,66.3500549 175.562687,58.6724249 L175.635,58.642 L171.962401,54.9699669 C171.260597,54.2681631 170.716443,53.4684082 170.329939,52.6147089 L148.649499,74.2959998 C145.525305,77.4201941 140.459985,77.4201941 137.335791,74.2959998 L133.343146,70.3033549 C130.218951,67.1791606 130.218951,62.1138407 133.343146,58.9896464 L189.989646,2.34314575 C193.113841,-0.781048584 198.179161,-0.781048584 201.303355,2.34314575 Z" id="tractor-body" fill="#000000"></path>
            <path d="M40.7223161,73.7305047 L114.799932,77.6740116 C116.763519,77.7785428 118.61983,78.6025936 120.014444,79.9888312 L130.424465,90.3363244 C133.289045,93.1836982 133.302993,97.8141515 130.455619,100.678731 C129.08288,102.059766 127.21606,102.836324 125.268839,102.836324 L46.8483207,102.836324 C43.8168635,102.836324 41.0458177,101.122873 39.6913139,98.4108529 L33.1400332,85.2937215 C31.1658755,81.3410159 32.7698057,76.5363438 36.7225113,74.5621862 C37.9613314,73.9434642 39.3395387,73.6568928 40.7223161,73.7305047 Z" id="seat" fill="#000000"></path>
        </g>
    </g>
</svg>