<?xml version="1.0" encoding="UTF-8"?>
<svg width="650px" height="454px" viewBox="0 0 650 454" version="1.1" xmlns="http://www.w3.org/2000/svg" xmlns:xlink="http://www.w3.org/1999/xlink">
    <!-- Generator: Sketch 57.1 (83088) - https://sketch.com -->
    <title>dd3c00 box</title>
    <desc>Created with Sketch.</desc>
    <g id="Page-1" stroke="none" stroke-width="1" fill="none" fill-rule="evenodd">
        <g id="older-than-August-2021" transform="translate(-6709.000000, -7147.000000)">
            <path d="M6709,7147 L7359,7147 L7359,7374 C7211.03145,7374 7100.69812,7374 7028,7374 C6955.30188,7374 6848.96855,7374 6709,7374 L6709,7147 Z" id="dd3c00-box" fill="#C4AEAD"></path>
            <g id="ORIGINAL-logo-Copy-2" transform="translate(5463.000000, 6766.000000)" fill="#FFFFFF" fill-rule="nonzero">
                <path d="M1312.22303,567 C1302.42896,567 1293.56067,565.420873 1285.61792,562.26257 C1277.67516,559.104267 1271.13592,554.486064 1266,548.407821 L1288.7532,521.592179 C1292.09752,525.763522 1295.38207,528.862188 1298.60695,530.888268 C1301.83183,532.914349 1305.17609,533.927374 1308.63985,533.927374 C1313.05913,533.927374 1316.43326,532.6164 1318.76234,529.994413 C1321.09142,527.372427 1322.25594,523.499095 1322.25594,518.374302 L1322.25594,470.821229 L1279.61609,470.821229 L1279.61609,439 L1364,439 L1364,515.871508 C1364,532.914425 1359.61065,545.696419 1350.83181,554.217877 C1342.05297,562.739335 1329.18351,567 1312.22303,567 Z M1467.18673,539.714286 L1414.09582,539.714286 L1404.23096,564 L1368,564 L1423.4226,439 L1458.39803,439 L1514,564 L1477.0516,564 L1467.18673,539.714286 Z M1457,513 L1441,473 L1425,513 L1457,513 Z M1581.03061,567 C1567.88186,567 1556.07804,564.21088 1545.6188,558.632555 C1535.15957,553.05423 1526.94172,545.28668 1520.96501,535.32967 C1514.98831,525.37266 1512,514.096217 1512,501.5 C1512,488.903783 1514.98831,477.627339 1520.96501,467.67033 C1526.94172,457.71332 1535.15957,449.94577 1545.6188,444.367445 C1556.07804,438.78912 1567.88186,436 1581.03061,436 C1592.50589,436 1602.84544,438.039357 1612.04956,442.118132 C1621.25369,446.196907 1628.90376,452.075053 1635,459.752747 L1612.40816,480.266484 C1604.27984,470.429438 1594.41842,465.510989 1582.82362,465.510989 C1576.01017,465.510989 1569.9439,467.010516 1564.62464,470.009615 C1559.30537,473.008715 1555.1815,477.237381 1552.25292,482.695742 C1549.32433,488.154102 1547.86006,494.422126 1547.86006,501.5 C1547.86006,508.577874 1549.32433,514.845897 1552.25292,520.304258 C1555.1815,525.762619 1559.30537,529.991285 1564.62464,532.990385 C1569.9439,535.989484 1576.01017,537.489011 1582.82362,537.489011 C1594.41842,537.489011 1604.27984,532.570562 1612.40816,522.733516 L1635,543.247253 C1628.90376,550.924947 1621.25369,556.803093 1612.04956,560.881868 C1602.84544,564.960643 1592.50589,567 1581.03061,567 Z M1697.21429,518.642857 L1684,532.75 L1684,564 L1649,564 L1649,439 L1684,439 L1684,490.964286 L1732.39286,439 L1771.32143,439 L1720.25,494.357143 L1774,564 L1732.92857,564 L1697.21429,518.642857 Z M1822.14876,567 C1811.93934,567 1802.03035,565.740397 1792.42149,563.221154 C1782.81262,560.701911 1775.00554,557.34297 1769,553.144231 L1780.71074,526.872253 C1786.35595,530.591136 1792.90189,533.59019 1800.34876,535.869505 C1807.79563,538.148821 1815.12228,539.288462 1822.32893,539.288462 C1836.02156,539.288462 1842.86777,535.869539 1842.86777,529.031593 C1842.86777,525.432674 1840.916,522.763516 1837.0124,521.024038 C1833.1088,519.284561 1826.8331,517.455138 1818.18512,515.535714 C1808.69637,513.496327 1800.76918,511.307017 1794.40331,508.96772 C1788.03743,506.628422 1782.57248,502.879605 1778.00826,497.721154 C1773.44405,492.562703 1771.16198,485.604897 1771.16198,476.847527 C1771.16198,469.169833 1773.26389,462.242018 1777.46777,456.063874 C1781.67165,449.885729 1787.94734,444.997271 1796.29504,441.398352 C1804.64274,437.799433 1814.88203,436 1827.01322,436 C1835.30087,436 1843.46828,436.929707 1851.5157,438.789148 C1859.56313,440.64859 1866.64956,443.377729 1872.77521,446.976648 L1861.78512,473.428571 C1849.77404,466.950517 1838.12347,463.711538 1826.83306,463.711538 C1819.74652,463.711538 1814.58183,464.761207 1811.33884,466.860577 C1808.09585,468.959946 1806.47438,471.689086 1806.47438,475.048077 C1806.47438,478.407068 1808.39612,480.926274 1812.23967,482.605769 C1816.08321,484.285265 1822.26883,486.024716 1830.79669,487.824176 C1840.40556,489.863563 1848.36278,492.052873 1854.6686,494.39217 C1860.97441,496.731468 1866.43937,500.450295 1871.06364,505.548764 C1875.6879,510.647232 1878,517.575047 1878,526.332418 C1878,533.890148 1875.89809,540.727992 1871.69421,546.846154 C1867.49034,552.964316 1861.18462,557.852774 1852.77686,561.511676 C1844.3691,565.170577 1834.15984,567 1822.14876,567 Z" id="JACKS"></path>
            </g>
            <g id="TeddyUlan-logo-Copy-3" transform="translate(4997.000000, 7374.000000)" fill="#838996">
                <path d="M1712,0 L2362,0 L2362,227 C2214.03145,227 2103.69812,227 2031,227 C1958.30188,227 1851.96855,227 1712,227 L1712,0 Z" id="0500ff-box"></path>
            </g>
            <text id="Media" font-family="Phosphate-Inline, Phosphate" font-size="195" font-weight="normal" letter-spacing="8.66666667" fill="#EFEFEF">
                <tspan x="6750.19833" y="7546">Media</tspan>
            </text>
        </g>
    </g>
</svg>