<?xml version="1.0" encoding="UTF-8"?>
<svg width="650px" height="454px" viewBox="0 0 650 454" version="1.1" xmlns="http://www.w3.org/2000/svg" xmlns:xlink="http://www.w3.org/1999/xlink">
    <!-- Generator: Sketch 57.1 (83088) - https://sketch.com -->
    <title>logo</title>
    <desc>Created with Sketch.</desc>
    <g id="Page-1" stroke="none" stroke-width="1" fill="none" fill-rule="evenodd">
        <g id="logo">
            <path d="M0,0 L650,0 L650,227 C502.03145,227 391.69812,227 319,227 C246.30188,227 139.96855,227 0,227 L0,0 Z" id="dd3c00-box" fill="#C4AEAD" fill-rule="nonzero"></path>
            <g id="ORIGINAL-logo-Copy-2" transform="translate(20.000000, 55.000000)" fill="#FFFFFF" fill-rule="nonzero">
                <path d="M46.22303,131 C36.42896,131 27.56067,129.420873 19.61792,126.26257 C11.67516,123.104267 5.13592,118.486064 0,112.407821 L22.7532,85.592179 C26.09752,89.763522 29.38207,92.862188 32.60695,94.888268 C35.83183,96.914349 39.17609,97.927374 42.63985,97.927374 C47.05913,97.927374 50.43326,96.6164 52.76234,93.994413 C55.09142,91.372427 56.25594,87.499095 56.25594,82.374302 L56.25594,34.821229 L13.61609,34.821229 L13.61609,3 L98,3 L98,79.871508 C98,96.914425 93.61065,109.696419 84.83181,118.217877 C76.05297,126.739335 63.18351,131 46.22303,131 Z M201.18673,103.714286 L148.09582,103.714286 L138.23096,128 L102,128 L157.4226,3 L192.39803,3 L248,128 L211.0516,128 L201.18673,103.714286 Z M191,77 L175,37 L159,77 L191,77 Z M315.03061,131 C301.88186,131 290.07804,128.21088 279.6188,122.632555 C269.15957,117.05423 260.94172,109.28668 254.96501,99.32967 C248.98831,89.37266 246,78.096217 246,65.5 C246,52.903783 248.98831,41.627339 254.96501,31.67033 C260.94172,21.71332 269.15957,13.94577 279.6188,8.367445 C290.07804,2.78912 301.88186,0 315.03061,0 C326.50589,0 336.84544,2.039357 346.04956,6.118132 C355.25369,10.196907 362.90376,16.075053 369,23.752747 L346.40816,44.266484 C338.27984,34.429438 328.41842,29.510989 316.82362,29.510989 C310.01017,29.510989 303.9439,31.010516 298.62464,34.009615 C293.30537,37.008715 289.1815,41.237381 286.25292,46.695742 C283.32433,52.154102 281.86006,58.422126 281.86006,65.5 C281.86006,72.577874 283.32433,78.845897 286.25292,84.304258 C289.1815,89.762619 293.30537,93.991285 298.62464,96.990385 C303.9439,99.989484 310.01017,101.489011 316.82362,101.489011 C328.41842,101.489011 338.27984,96.570562 346.40816,86.733516 L369,107.247253 C362.90376,114.924947 355.25369,120.803093 346.04956,124.881868 C336.84544,128.960643 326.50589,131 315.03061,131 Z M431.21429,82.642857 L418,96.75 L418,128 L383,128 L383,3 L418,3 L418,54.964286 L466.39286,3 L505.32143,3 L454.25,58.357143 L508,128 L466.92857,128 L431.21429,82.642857 Z M556.14876,131 C545.93934,131 536.03035,129.740397 526.42149,127.221154 C516.81262,124.701911 509.00554,121.34297 503,117.144231 L514.71074,90.872253 C520.35595,94.591136 526.90189,97.59019 534.34876,99.869505 C541.79563,102.148821 549.12228,103.288462 556.32893,103.288462 C570.02156,103.288462 576.86777,99.869539 576.86777,93.031593 C576.86777,89.432674 574.916,86.763516 571.0124,85.024038 C567.1088,83.284561 560.8331,81.455138 552.18512,79.535714 C542.69637,77.496327 534.76918,75.307017 528.40331,72.96772 C522.03743,70.628422 516.57248,66.879605 512.00826,61.721154 C507.44405,56.562703 505.16198,49.604897 505.16198,40.847527 C505.16198,33.169833 507.26389,26.242018 511.46777,20.063874 C515.67165,13.885729 521.94734,8.997271 530.29504,5.398352 C538.64274,1.799433 548.88203,0 561.01322,0 C569.30087,0 577.46828,0.929707 585.5157,2.789148 C593.56313,4.64859 600.64956,7.377729 606.77521,10.976648 L595.78512,37.428571 C583.77404,30.950517 572.12347,27.711538 560.83306,27.711538 C553.74652,27.711538 548.58183,28.761207 545.33884,30.860577 C542.09585,32.959946 540.47438,35.689086 540.47438,39.048077 C540.47438,42.407068 542.39612,44.926274 546.23967,46.605769 C550.08321,48.285265 556.26883,50.024716 564.79669,51.824176 C574.40556,53.863563 582.36278,56.052873 588.6686,58.39217 C594.97441,60.731468 600.43937,64.450295 605.06364,69.548764 C609.6879,74.647232 612,81.575047 612,90.332418 C612,97.890148 609.89809,104.727992 605.69421,110.846154 C601.49034,116.964316 595.18462,121.852774 586.77686,125.511676 C578.3691,129.170577 568.15984,131 556.14876,131 Z" id="JACKS"></path>
            </g>
            <g id="TeddyUlan-logo-Copy-3" transform="translate(0.000000, 227.000000)" fill="#838996" fill-rule="nonzero">
                <path d="M0,0 L650,0 L650,227 C502.03145,227 391.69812,227 319,227 C246.30188,227 139.96855,227 0,227 L0,0 Z" id="0500ff-box"></path>
            </g>
            <g id="Media" transform="translate(11.000000, 240.000000)" fill="#EFEFEF" font-family="Comfortaa-Regular_Bold, Comfortaa" font-size="180" font-weight="bold">
                <text>
                    <tspan x="0.33" y="159">Media</tspan>
                </text>
            </g>
        </g>
    </g>
</svg>