<?xml version="1.0" encoding="UTF-8"?>
<svg width="2463px" height="2892px" viewBox="0 0 2463 2892" version="1.1" xmlns="http://www.w3.org/2000/svg" xmlns:xlink="http://www.w3.org/1999/xlink">
    <!-- Generator: Sketch 57.1 (83088) - https://sketch.com -->
    <title>Slice</title>
    <desc>Created with Sketch.</desc>
    <g id="Page-1" stroke="none" stroke-width="1" fill="none" fill-rule="evenodd">
        <polyline id="Path" stroke="#838996" stroke-width="10" fill="#D2C1C1" points="1196 206 1196 2884 936 2784 936 106"></polyline>
        <polyline id="Path" stroke="#838996" stroke-width="10" fill="#C4AEAD" transform="translate(1320.000000, 1495.000000) scale(-1, 1) translate(-1320.000000, -1495.000000) " points="1450 206 1450 2884 1190 2784 1190 106 1190 106"></polyline>
        <path d="M1169.55485,18.9769688 L963.175178,194.521369 L1231.48706,198.848465 L1425.10186,17.9324495 L1169.55485,18.9769688 Z" id="signpost-top" stroke="#838996" stroke-width="10" fill="#C4AEAD" transform="translate(1193.831991, 108.380375) scale(-1, 1) rotate(21.000000) translate(-1193.831991, -108.380375) "></path>
        <path d="M1750.18734,1493.67197 L1637.23811,2282.0831 L1882.73329,2618.15664 L2145.82877,2281.88414 L2068.20629,1489.0661 L1750.18734,1493.67197 Z" id="signpost-exchange" stroke="#ACACAC" stroke-width="10" fill="#F2F3F4" transform="translate(1891.500000, 2055.222905) scale(-1, 1) rotate(90.000000) translate(-1891.500000, -2055.222905) "></path>
        <g id="Exchange-arrows-Copy" transform="translate(1833.000000, 1964.000000)" fill="#000000" fill-rule="nonzero">
            <path id="exchange-arrow-copy" d="M174.612907,-98.2533804 L350.72026,0.431691054 L174.93365,99.6869733 L158.708445,70.9512343 L254.103,17.087 L-16.4732417,17.526715 L-16.526715,-15.4732417 L254.051,-15.911 L158.480913,-69.4652096 L174.612907,-98.2533804 Z"></path>
            <path id="exchange-arrow" d="M174.612907,81.7466196 L350.72026,180.431691 L174.93365,279.686973 L158.708445,250.951234 L254.103,197.087 L-16.4732417,197.526715 L-16.526715,164.526758 L254.05,164.088 L158.480913,110.53479 L174.612907,81.7466196 Z"></path>
        </g>
        <path d="M1716.52479,-51.9453397 L1637.18979,843.279259 C1723.81936,970.068188 1800.84187,1033.15425 1867.55142,1033.15425 C1934.02032,1033.15425 2011.24739,955.091605 2098.05142,798.324845 L2098.05142,-51.6750298 L1716.52479,-51.9453397 Z" id="signpost-liquidity" stroke="#ACACAC" stroke-width="10" fill="#F2F3F4" transform="translate(1867.551417, 490.602834) scale(-1, 1) rotate(90.000000) translate(-1867.551417, -490.602834) "></path>
        <g id="liquidity-symbol" transform="translate(1794.000000, 335.000000)" stroke="#000000">
            <ellipse id="Oval" stroke-width="25" cx="315" cy="152" rx="144.5" ry="139.5"></ellipse>
            <ellipse id="Oval-Copy" stroke-width="28" cx="157" cy="152" rx="143" ry="138"></ellipse>
        </g>
        <path d="M495.053264,1047.64658 L347.290437,1834.93386 L581.685954,2026.76229 L852.11707,1834.47542 L797.363441,1047.64658 L495.053264,1047.64658 Z" id="signpost-pool" stroke="#ACACAC" stroke-width="10" fill="#F2F3F4" transform="translate(599.564494, 1537.847736) rotate(90.000000) translate(-599.564494, -1537.847736) "></path>
        <path d="M572.206554,-202.312985 L218.543118,533.50922 L380.891587,874.184785 L689.952386,549.948174 L875.601437,-206.902633 L572.206554,-202.312985 Z" id="signpost-vault" stroke="#ACACAC" stroke-width="10" fill="#F2F3F4" transform="translate(547.500000, 335.445024) rotate(90.000000) translate(-547.500000, -335.445024) "></path>
        <g id="vault-symbol-copy" transform="translate(352.000000, 174.000000)" stroke="#000000">
            <g id="safe-housing">
                <path d="M157.62963,224.088486 C125.82716,224.088486 94.0246914,224.088486 62.2222222,224.088486 M26.8259476,224.347548 C23.7172984,224.347548 20.6086492,224.347548 17.5,224.347548 C7.83501688,224.347548 0,216.500375 0,206.820396 L0,17.5271522 C0,7.84717333 7.83501688,0 17.5,0 L206.5,0 C216.164983,0 224,7.84717333 224,17.5271522 L224,206.820396 C224,216.500375 216.164983,224.347548 206.5,224.347548 C204.261263,224.347548 201.893376,224.347548 199.396339,224.347548" id="Shape" stroke-width="25"></path>
                <path d="M64.8148148,217.61194 L64.8148148,224.865672 C64.8148148,234.880985 56.6896121,243 46.6666667,243 L39.4074074,243 C29.3844619,243 21.2592593,234.880985 21.2592593,224.865672 L21.2592593,217.61194" id="Shape" stroke-width="25"></path>
                <path d="M205.333333,217.61194 L205.333333,224.865672 C205.333333,234.880985 197.208131,243 187.185185,243 L179.925926,243 C169.90298,243 161.777778,234.880985 161.777778,224.865672 L161.777778,217.61194" id="Shape" stroke-width="25"></path>
                <rect id="vault-door" stroke-width="12" x="38.1481481" y="38.1236674" width="148.222222" height="148.100213" rx="35"></rect>
            </g>
            <g id="safe-wheel" transform="translate(76.000000, 75.000000)">
                <ellipse id="Oval" stroke-width="12" cx="36.5" cy="36" rx="30.5" ry="30"></ellipse>
                <g id="lock" transform="translate(13.296429, 11.571429)" stroke-linecap="square" stroke-width="10">
                    <path d="M0.260714286,0.257142857 L45.625,49.1142857" id="wheelcross"></path>
                    <path d="M0.782142857,0.257142857 L46.1464286,49.1142857" id="wheelcross-copy" transform="translate(23.464286, 24.685714) scale(-1, 1) translate(-23.464286, -24.685714) "></path>
                </g>
            </g>
        </g>
        <g id="Pool-symbol-Copy" transform="translate(233.000000, 1466.000000)" stroke="#000000">
            <path d="M43.6613991,54.2789706 L239.962253,183.157651 L557.58996,124.630369 L304.4689,28.2768616 L43.6613991,54.2789706 Z" id="pool-frame" stroke-width="30"></path>
            <g id="ladder" transform="translate(368.000000, 0.000000)" stroke-width="25">
                <path d="M103.887446,87.483871 C103.887446,39.1678632 80.631449,0 51.9437229,0 C23.2559969,0 0,39.1678632 0,87.483871" id="Path"></path>
                <path d="M169,113 C169,62.2681918 143.942482,21.1419355 113.032468,21.1419355 C82.1224529,21.1419355 57.0649351,62.2681918 57.0649351,113" id="Path-Copy"></path>
            </g>
        </g>
        <path d="M566.592416,500 L361.51343,1257.25467 L494.231283,1413.63314 L733.289205,1303.22711 L901.757646,500 L566.592416,500 Z" id="signpost-farm" stroke="#ACACAC" stroke-width="10" fill="#F2F3F4" transform="translate(631.957568, 957.382823) rotate(90.000000) translate(-631.957568, -957.382823) "></path>
        <g id="Farm-symbol-Copy" transform="translate(332.000000, 776.000000)">
            <circle id="wheel-copy" stroke="#000000" stroke-width="30" cx="290" cy="216" r="44"></circle>
            <circle id="wheel" stroke="#000000" stroke-width="30" cx="82.5" cy="192.5" r="67.5"></circle>
            <path d="M201.303355,2.34314575 L205.296,6.33579066 C208.420194,9.459985 208.420194,14.5253048 205.296,17.6494992 L184.913055,38.0309516 C185.76692,38.4174681 186.566829,38.9616887 187.268754,39.6636135 L203.605,56 L291,56 C310.329966,56 326,71.6700338 326,91 L326.000545,158.491411 C315.07219,148.849893 300.719253,143 285,143 C250.758346,143 223,170.758346 223,205 L189,205 C183.789093,205 178.844159,203.861234 174.400483,201.818988 C176.091825,196.175069 177,190.193592 177,184 C177,164.535891 168.030812,147.166648 154.000255,135.801251 L154.00018,133.811983 C175.319823,131.79766 192,113.846762 192,92 C192,78.4226619 185.55748,66.3500549 175.562687,58.6724249 L175.635,58.642 L171.962401,54.9699669 C171.260597,54.2681631 170.716443,53.4684082 170.329939,52.6147089 L148.649499,74.2959998 C145.525305,77.4201941 140.459985,77.4201941 137.335791,74.2959998 L133.343146,70.3033549 C130.218951,67.1791606 130.218951,62.1138407 133.343146,58.9896464 L189.989646,2.34314575 C193.113841,-0.781048584 198.179161,-0.781048584 201.303355,2.34314575 Z" id="tractor-body" fill="#000000"></path>
            <path d="M40.7223161,73.7305047 L114.799932,77.6740116 C116.763519,77.7785428 118.61983,78.6025936 120.014444,79.9888312 L130.424465,90.3363244 C133.289045,93.1836982 133.302993,97.8141515 130.455619,100.678731 C129.08288,102.059766 127.21606,102.836324 125.268839,102.836324 L46.8483207,102.836324 C43.8168635,102.836324 41.0458177,101.122873 39.6913139,98.4108529 L33.1400332,85.2937215 C31.1658755,81.3410159 32.7698057,76.5363438 36.7225113,74.5621862 C37.9613314,73.9434642 39.3395387,73.6568928 40.7223161,73.7305047 Z" id="seat" fill="#000000"></path>
        </g>
    </g>
</svg>