<?xml version="1.0" encoding="UTF-8"?>
<svg width="253px" height="253px" viewBox="0 0 253 253" version="1.1" xmlns="http://www.w3.org/2000/svg" xmlns:xlink="http://www.w3.org/1999/xlink">
    <!-- Generator: Sketch 57.1 (83088) - https://sketch.com -->
    <title>Valora logo</title>
    <desc>Created with Sketch.</desc>
    <defs>
        <linearGradient x1="94.7082008%" y1="5.49532081%" x2="6.3796723%" y2="96.6100776%" id="linearGradient-1">
            <stop stop-color="#C4AEAD" offset="0%"></stop>
            <stop stop-color="#848482" offset="100%"></stop>
        </linearGradient>
    </defs>
    <g id="Page-1" stroke="none" stroke-width="1" fill="none" fill-rule="evenodd">
        <path d="M213,0.5 L40,0.5 C18.1847524,0.5 0.5,18.1847524 0.5,40 L0.5,213 C0.5,234.815248 18.1847524,252.5 40,252.5 L213,252.5 C234.815248,252.5 252.5,234.815248 252.5,213 L252.5,40 C252.5,18.1847524 234.815248,0.5 213,0.5 Z M126.49994,145.860747 L126.529274,145.798865 C134.31875,129.387663 142.304459,115.952403 150.489088,105.492292 C158.847653,94.8098884 171.768716,81.665075 189.255308,66.0517448 L189.6465,65.7024601 L211.04664,92.1027772 L210.644578,92.4160691 C192.865171,106.270015 178.550605,120.855249 167.699236,136.170661 C162.215445,143.910377 156.070859,155.780392 152.366229,167.27193 C150.264674,173.790827 148.333375,181.193511 146.591762,189.037201 C145.403855,194.387167 144.46643,199.183771 143.743638,203.268587 L143.67058,203.681467 L109.32942,203.681467 L109.256362,203.268587 C108.53357,199.183771 107.596145,194.387167 106.408238,189.037201 C104.666625,181.193511 102.735326,173.790827 100.633771,167.27193 C96.9291414,155.780392 90.784555,143.910377 85.3007641,136.170661 C74.6622343,121.155646 60.6950299,106.842445 43.3985116,93.2328231 L41.9541169,92.1018437 L63.3535005,65.7024601 L63.7446918,66.0517448 C81.2312837,81.665075 94.1523475,94.8098884 102.511911,105.493573 L103.044792,106.179186 C111.042865,116.538321 118.850682,129.744629 126.471175,145.799814 L126.49994,145.860747 Z" id="Valora-logo" stroke="#979797" fill="url(#linearGradient-1)"></path>
    </g>
</svg>