<?xml version="1.0" encoding="UTF-8"?>
<svg width="458px" height="495px" viewBox="0 0 458 495" version="1.1" xmlns="http://www.w3.org/2000/svg" xmlns:xlink="http://www.w3.org/1999/xlink">
    <!-- Generator: Sketch 57.1 (83088) - https://sketch.com -->
    <title>Safe symbol</title>
    <desc>Created with Sketch.</desc>
    <g id="Page-1" stroke="none" stroke-width="1" fill="none" fill-rule="evenodd">
        <g id="Safe-symbol" transform="translate(13.000000, 13.000000)" stroke="#000000">
            <g id="safe-housing">
                <path d="M304,432.5 C242.666667,432.5 181.333333,432.5 120,432.5 M51.735756,433 C45.740504,433 39.745252,433 33.75,433 C15.1103897,433 0,417.854633 0,399.171875 L0,33.828125 C0,15.1453674 15.1103897,0 33.75,0 L398.25,0 C416.88961,0 432,15.1453674 432,33.828125 L432,399.171875 C432,417.854632 416.889611,433 398.25,433 C393.932436,433 389.365797,433 384.550082,433" id="Shape" stroke-width="25"></path>
                <path d="M125,420 L125,434 C125,453.329966 109.329966,469 90,469 L76,469 C56.6700338,469 41,453.329966 41,434 L41,420" id="Shape" stroke-width="25"></path>
                <path d="M396,420 L396,434 C396,453.329966 380.329966,469 361,469 L347,469 C327.670034,469 312,453.329966 312,434 L312,420" id="Shape" stroke-width="25"></path>
                <rect id="vault-door" stroke-width="12" x="68" y="68" width="297" height="297" rx="35"></rect>
            </g>
            <g id="safe-wheel" transform="translate(147.000000, 146.000000)">
                <circle id="Oval" stroke-width="12" cx="70" cy="70" r="64"></circle>
                <g id="lock" transform="translate(25.500000, 22.500000)" stroke-linecap="square" stroke-width="10">
                    <path d="M0.5,0.5 L87.5,95.5" id="wheelcross"></path>
                    <path d="M1.5,0.5 L88.5,95.5" id="wheelcross-copy" transform="translate(45.000000, 48.000000) scale(-1, 1) translate(-45.000000, -48.000000) "></path>
                </g>
            </g>
        </g>
    </g>
</svg>