<?xml version="1.0" encoding="UTF-8"?>
<svg width="590px" height="315px" viewBox="0 0 590 315" version="1.1" xmlns="http://www.w3.org/2000/svg" xmlns:xlink="http://www.w3.org/1999/xlink">
    <!-- Generator: Sketch 57.1 (83088) - https://sketch.com -->
    <title>Valora logo</title>
    <desc>Created with Sketch.</desc>
    <defs>
        <radialGradient cx="19.8647394%" cy="24.4409787%" fx="19.8647394%" fy="24.4409787%" r="161.61055%" id="radialGradient-1">
            <stop stop-color="#E1E3E7" offset="0%"></stop>
            <stop stop-color="#838996" offset="31.8976338%"></stop>
            <stop stop-color="#3259A5" offset="100%"></stop>
        </radialGradient>
        <linearGradient x1="94.7082008%" y1="5.49532081%" x2="6.3796723%" y2="96.6100776%" id="linearGradient-2">
            <stop stop-color="#C4AEAD" offset="0%"></stop>
            <stop stop-color="#848482" offset="100%"></stop>
        </linearGradient>
    </defs>
    <g id="Page-1" stroke="none" stroke-width="1" fill="none" fill-rule="evenodd">
        <g id="cbkc" transform="translate(298.000000, -12.000000)" fill-rule="nonzero">
            <g id="Group">
                <circle id="Oval" fill="url(#radialGradient-1)" cx="154.5" cy="141.5" r="127.5"></circle>
                <path d="M199.000689,149.850521 C195.102559,170.577391 176.978445,186.25 155.192717,186.25 C130.560039,186.25 110.596358,166.217541 110.596358,141.5 C110.596358,116.782459 130.560039,96.75 155.192717,96.75 C176.978445,96.75 195.102559,112.431399 199.000689,133.149479 L244,133.149479 C239.804035,87.6347476 201.646161,52 155.192717,52 C105.927362,52 66,92.0737085 66,141.5 C66,190.935082 105.936122,231 155.192717,231 C201.646161,231 239.804035,195.365252 244,149.850521 L199.000689,149.850521 Z" id="Path" fill="#FFFFFF"></path>
            </g>
            <path d="M80.4388932,293 C71.2106072,293 64,300.068105 64,309.530245 C64,318.994712 71.0284397,326 80.4388932,326 C89.8493467,326 97,318.871404 97,309.469755 C96.9976941,300.128596 89.9715603,293 80.4388932,293 Z M81.0011392,319 C75.8065086,319 72,314.957933 72,309.529688 C72,304.039784 75.7449662,300 80.9395968,300 C86.1957697,300 90,304.101442 90,309.529688 C90.0022783,314.957933 86.1957697,319 81.0011392,319 Z M99,300.415202 L103.231424,300.415202 L103.231424,325 L110,325 L110,294 L99,294 L99,300.415202 Z M45.2726622,299.821489 C49.0990978,299.821489 52.1350422,302.217851 53.2875555,305.782149 L61,305.782149 C59.6023199,298.162648 53.4089933,293 45.3345267,293 C36.1648289,293 29,300.068105 29,309.530245 C29,318.994712 35.9838178,326 45.3345267,326 C53.2279822,326 59.5427467,320.837352 60.9404268,313.155034 L53.2898468,313.155034 C52.1969068,316.719332 49.1609623,319.178511 45.3345267,319.178511 C40.0508377,319.178511 36.3481312,315.060491 36.3481312,309.530245 C36.3458399,303.939509 39.9889732,299.821489 45.2726622,299.821489 Z M236.964602,306.456853 L231.513274,305.658841 C228.911504,305.291244 227.053097,304.430415 227.053097,302.40165 C227.053097,300.189086 229.470195,299.083968 232.752212,299.083968 C236.345133,299.083968 238.638337,300.619501 239.133912,303.139171 L246.319753,303.139171 C245.513274,296.748096 240.557522,293 232.939222,293 C225.070796,293 219.867257,296.994712 219.867257,302.648266 C219.867257,308.055203 223.275505,311.191413 230.150442,312.173223 L235.60177,312.971235 C238.266656,313.338832 239.753381,314.385787 239.753381,316.351734 C239.753381,318.871404 237.151611,319.916032 233.558691,319.916032 C229.159292,319.916032 226.681416,318.133883 226.309735,315.430415 L219,315.430415 C219.682585,321.63769 224.575221,326 233.495575,326 C241.611788,326 247,322.312394 247,315.98181 C247,310.328257 243.096176,307.378173 236.964602,306.456853 Z M107,281 C104.143557,281 102,283.104608 102,285.998755 C102,288.892902 104.143557,291 107,291 C109.856443,291 112,288.895392 112,286.001245 C112,283.107098 109.858893,281 107,281 Z M214.417707,304.163159 C214.417707,297.477469 210.292919,293 201.558074,293 C193.308499,293 188.698442,297.120356 187.787418,303.448933 L195.006941,303.448933 C195.370893,301.00113 197.311969,298.971465 201.436757,298.971465 C205.138079,298.971465 206.957838,300.582992 206.957838,302.553892 C206.957838,305.121486 203.620468,305.776946 199.49568,306.195084 C193.915085,306.791778 187,308.701653 187,315.866507 C187,321.419833 191.186591,325 197.859042,325 C203.075685,325 206.351252,322.850544 207.990179,319.446673 C208.232814,322.491171 210.537842,324.462071 213.753895,324.462071 L218,324.462071 L218,318.074728 L214.419996,318.074728 L214.419996,304.163159 L214.417707,304.163159 Z M207,311.939866 C207,316 203.38952,319 198.995633,319 C196.286638,319 194,317.88196 194,315.530067 C194,312.530067 197.67179,311.706013 201.041572,311.35412 C204.291004,311.060134 206.096245,310.35412 207,309 L207,311.939866 Z M168.423442,292.563138 C164.297571,292.563138 160.850053,294.255298 158.38754,297.093094 L158.38754,280 L151,280 L151,324.396311 L158.264414,324.396311 L158.264414,320.289395 C160.726927,323.248387 164.23717,325 168.423442,325 C177.28849,325 184,318.114742 184,308.81244 C184,299.510138 177.165364,292.563138 168.423442,292.563138 Z M167.001139,319 C161.806509,319 158,314.957933 158,309.529688 C158,304.101442 161.865772,300 167.060402,300 C172.316575,300 176,304.042067 176,309.529688 C176.002278,314.957933 172.19577,319 167.001139,319 Z M133.939273,293 C129.187173,293 126.07888,294.942389 124.251149,297.675526 L124.251149,293.606853 L117,293.606853 L117,324.997701 L124.310924,324.997701 L124.310924,307.936858 C124.310924,303.139501 127.357143,299.739746 131.865546,299.739746 C136.070477,299.739746 138.689075,302.714245 138.689075,307.026579 L138.689075,325 L146,325 L146,306.48179 C146.002298,298.588104 141.919216,293 133.939273,293 Z M282,308.485618 C282,299.391074 275.562006,293 266.917277,293 C257.737174,293 251,300.128596 251,309.530245 C251,319.425127 258.214063,326 267.0365,326 C274.489007,326 280.33089,321.451565 281.820042,315 L274.367535,315 C273.294536,317.826777 270.671649,319.425127 267.153472,319.425127 C262.562296,319.425127 259.104855,316.475042 258.331035,311.312394 L281.997751,311.312394 L281.997751,308.485618 L282,308.485618 Z M259,305 C260.139627,300.961783 263.375353,299 267.090447,299 C271.165065,299 274.28095,301.186837 275,305 L259,305 Z" id="Shape" stroke="#68799A" stroke-width="2"></path>
        </g>
        <path d="M213,0.5 L40,0.5 C18.1847524,0.5 0.5,18.1847524 0.5,40 L0.5,213 C0.5,234.815248 18.1847524,252.5 40,252.5 L213,252.5 C234.815248,252.5 252.5,234.815248 252.5,213 L252.5,40 C252.5,18.1847524 234.815248,0.5 213,0.5 Z M126.49994,145.860747 L126.529274,145.798865 C134.31875,129.387663 142.304459,115.952403 150.489088,105.492292 C158.847653,94.8098884 171.768716,81.665075 189.255308,66.0517448 L189.6465,65.7024601 L211.04664,92.1027772 L210.644578,92.4160691 C192.865171,106.270015 178.550605,120.855249 167.699236,136.170661 C162.215445,143.910377 156.070859,155.780392 152.366229,167.27193 C150.264674,173.790827 148.333375,181.193511 146.591762,189.037201 C145.403855,194.387167 144.46643,199.183771 143.743638,203.268587 L143.67058,203.681467 L109.32942,203.681467 L109.256362,203.268587 C108.53357,199.183771 107.596145,194.387167 106.408238,189.037201 C104.666625,181.193511 102.735326,173.790827 100.633771,167.27193 C96.9291414,155.780392 90.784555,143.910377 85.3007641,136.170661 C74.6622343,121.155646 60.6950299,106.842445 43.3985116,93.2328231 L41.9541169,92.1018437 L63.3535005,65.7024601 L63.7446918,66.0517448 C81.2312837,81.665075 94.1523475,94.8098884 102.511911,105.493573 L103.044792,106.179186 C111.042865,116.538321 118.850682,129.744629 126.471175,145.799814 L126.49994,145.860747 Z" id="Valora-logo" stroke="#979797" fill="url(#linearGradient-2)"></path>
        <path d="M118.749967,258.069814 C118.713927,258.102551 118.242745,258.238444 117.702153,258.372483 C116.356014,258.704802 115.996286,258.80981 115.84679,258.913583 C115.776045,258.96238 115.51843,259.052564 115.273495,259.113715 C113.476195,259.564014 112.180777,260.021107 112.088677,260.237917 C111.990569,260.469552 111.963206,311.25012 112.061313,311.487315 C112.252189,311.947496 112.643951,311.998147 116.058354,311.998765 L119.290558,312 L119.61825,311.71895 L119.945275,311.438517 L119.972638,284.976535 L120.000002,258.514553 L119.727704,258.261916 C119.47476,258.028428 118.913479,257.917861 118.749967,258.069814 M118.745153,258.260961 C118.936301,258.528028 118.94692,258.778556 118.962537,263.23784 C118.982526,268.901988 118.980027,266.517986 118.980027,279.010718 C118.980027,284.822487 118.980652,289.646232 118.981277,289.730149 C119.054987,298.616864 118.90007,310.573625 118.708922,310.761062 C118.414704,311.049567 112.913264,311.090608 112.336072,310.808227 L112.000002,310.644067 L112.000002,285.50118 L112.000002,260.358294 L112.241123,260.102866 C112.375426,259.960757 112.663398,259.814972 112.892026,259.77332 C113.116906,259.73228 113.51232,259.596908 113.769682,259.47195 C114.027045,259.346993 114.516159,259.18467 114.856602,259.111778 C115.196421,259.038273 115.641184,258.893714 115.84545,258.790195 C116.049091,258.686676 116.590053,258.527415 117.046684,258.435535 C117.50394,258.343654 117.995553,258.205832 118.139851,258.128653 C118.498409,257.93754 118.517149,257.941828 118.745153,258.260961 M82.2344505,273.225 C81.8144885,273.329566 80.8975407,273.489817 80.1969926,273.58077 C79.4964446,273.672342 78.6253442,273.856724 78.2610103,273.991607 C77.8966764,274.125871 77.3165541,274.287979 76.9717818,274.351708 C75.1336072,274.690772 74.7533795,275.152964 75.2473087,276.447347 C75.383017,276.802499 75.5242269,277.275209 75.5609049,277.497951 C75.5975828,277.720694 75.7149521,278.091933 75.821318,278.322719 C75.9270727,278.554124 76.0860103,279.060864 76.1746485,279.450045 C76.5450954,281.084731 76.8525786,281.168259 79.4328695,280.336067 C81.9067945,279.538524 86.6235737,279.398072 88.4091766,280.068776 C89.2961707,280.401653 90.3176505,280.867557 90.5878445,281.062457 C90.7455595,281.176303 90.9136666,281.269731 90.9613479,281.269731 C91.0860527,281.27035 92.626525,282.680436 92.6271363,282.794283 C92.6271363,282.8345 92.7646784,283.015788 92.9327855,283.197076 C93.1002813,283.378364 93.2378234,283.557796 93.2378234,283.595538 C93.2378234,283.633281 93.474396,284.088666 93.7635402,284.606544 C94.3418285,285.643536 94.6163016,286.679909 94.9347881,289.034796 C95.2141515,291.101974 94.8864955,291.218295 92.2701379,289.980835 C91.55553,289.643008 90.0419549,289.220415 88.9312255,289.04779 C88.414067,288.967973 87.6927348,288.829996 87.3284009,288.741518 C86.1602095,288.457521 83.7009556,288.434009 82.3872752,288.693876 C81.7710863,288.815766 80.922604,288.977873 80.5026419,289.053977 C80.0820685,289.130081 79.5374016,289.265583 79.2922709,289.355917 C79.0471402,289.445633 78.7677768,289.519262 78.6711916,289.519262 C78.5746064,289.519262 78.2934091,289.657858 78.0470558,289.828008 C77.8007025,289.998159 77.4382025,290.182541 77.2419757,290.238227 C76.8672497,290.344029 75.9075111,290.91388 75.5615162,291.236857 C75.4496485,291.340804 75.1562252,291.582109 74.909872,291.772678 C74.3040751,292.240438 73.4011873,293.186476 73.0771991,293.693216 C72.93171,293.921528 72.7831645,294.131277 72.7483205,294.159739 C72.5478146,294.321228 71.9420178,295.43123 71.8118112,295.875478 C71.7280633,296.161331 71.5685144,296.577118 71.4584806,296.798624 C71.0207909,297.675983 70.8404579,301.291224 71.1681139,302.615307 C71.5061619,303.98332 72.2384975,305.70339 72.7336493,306.29304 C72.8601881,306.443391 72.9628862,306.596836 72.9628862,306.63396 C72.9628862,306.671084 73.0435776,306.791736 73.1413854,306.901252 C73.2391932,307.011386 73.4513137,307.279296 73.6120852,307.497089 C74.2203273,308.320619 75.5340077,309.384216 77.0885398,310.310455 C77.6649943,310.653851 79.3423973,311.285574 80.0704539,311.433451 C80.2532321,311.470575 80.5332068,311.566478 80.6927557,311.647532 C81.6152052,312.112817 85.8074902,312.119004 87.203696,311.656813 C87.6364953,311.513267 88.5412171,311.221226 89.2136455,311.007764 C89.8860738,310.794921 90.5279372,310.538767 90.6404161,310.439151 C90.7528951,310.338917 90.982132,310.196609 91.1502391,310.122361 C91.9021362,309.788866 92.8343664,309.068664 94.1608842,307.797173 C94.8730469,307.114714 94.9745225,307.064596 95.1689154,307.302189 C95.3364112,307.50637 95.5723724,308.547693 95.579708,309.111975 C95.5876549,309.769685 95.8450115,311.173584 95.9837763,311.314036 C96.0632451,311.39509 96.9025579,311.442113 98.6337553,311.46315 C101.410884,311.49718 101.830235,311.431595 101.950661,310.945273 C102.075366,310.442245 101.939658,287.7367 101.809451,287.301733 C101.689636,286.90327 101.624228,286.524607 101.387655,284.878785 C101.230551,283.78487 100.581964,281.885987 100.032406,280.908393 C99.9682199,280.795165 99.7872755,280.448676 99.6295605,280.138692 C99.4724568,279.828708 99.3074062,279.55028 99.2627814,279.519962 C99.2187679,279.489644 98.995644,279.183991 98.7670183,278.840596 C98.2737005,278.098739 96.3695056,276.113233 96.1524947,276.113233 C96.0687468,276.113233 95.9403741,276.02723 95.8670183,275.921427 C95.7936625,275.816243 95.5045183,275.605256 95.2245436,275.453048 C94.9445688,275.300222 94.4628656,275.026743 94.1547712,274.844836 C93.8466768,274.662929 93.3423555,274.429668 93.0342611,274.325721 C92.7255553,274.221775 92.3129288,274.051624 92.1173133,273.947677 C91.9210865,273.84373 91.4626126,273.704516 91.0982787,273.637693 C90.7339448,273.57087 89.9967188,273.404432 89.4593874,273.268311 C88.1408166,272.932341 83.5194,272.905117 82.2344505,273.225 M89.2484647,274.264192 C89.7344665,274.377656 90.361465,274.4716 90.6415867,274.47282 C91.0059321,274.47465 91.3652864,274.575913 91.9068135,274.830903 C92.3235647,275.02672 92.7259667,275.187156 92.80208,275.187766 C92.8775693,275.188986 93.2157118,275.326241 93.5526065,275.492777 C93.8895012,275.659924 94.2226526,275.796569 94.2937748,275.796569 C94.3642732,275.796569 94.4790669,275.864281 94.5489414,275.946634 C94.6188159,276.028987 94.9288838,276.208944 95.2377039,276.347419 C95.546524,276.485894 95.7991951,276.63718 95.7991951,276.684152 C95.7991951,276.731123 95.9514216,276.855568 96.1373375,276.959882 C96.4455338,277.133738 97.3289466,277.906637 97.7569276,278.377575 C97.8523811,278.482499 98.0713627,278.719797 98.2429294,278.904024 C98.6827642,279.376792 99.0227783,279.828209 99.0227783,279.940453 C99.0227783,279.992305 99.1232228,280.122849 99.246127,280.228993 C99.3684073,280.335747 99.5611859,280.628558 99.6741081,280.880498 C99.7870302,281.131827 99.9629641,281.429518 100.064656,281.541152 C100.166349,281.652786 100.32419,281.963288 100.4159,282.231088 C100.507611,282.498888 100.649231,282.81915 100.730959,282.942984 C101.092809,283.492005 101.754121,286.85567 101.913834,288.963298 C102.079786,291.144739 101.984956,311.070519 101.807775,311.243766 C101.606885,311.439583 98.157458,311.578668 96.9995384,311.437143 C96.248388,311.345639 96.2390298,311.321238 96.0992809,309.153828 C95.9794961,307.301189 95.9370724,307.189555 95.3032112,307.075481 C95.0474208,307.029119 94.9189017,307.06145 94.7835199,307.204806 C94.3249688,307.692824 93.5850482,308.41021 93.2543923,308.687161 C93.054751,308.854917 92.8083188,309.075745 92.7072503,309.177619 C92.6068058,309.279493 92.3603736,309.430168 92.1601084,309.513131 C91.9598432,309.596094 91.6790976,309.770561 91.5362293,309.901106 C91.393361,310.031651 91.1594063,310.171956 91.016538,310.212217 C90.8736697,310.253089 90.6627986,310.368993 90.5486287,310.469037 C90.433835,310.569691 90.0595075,310.727686 89.716374,310.81919 C89.3732405,310.911303 88.9290386,311.049778 88.7287734,311.127861 C88.2146971,311.327949 86.7099007,311.686032 86.3661433,311.690302 C86.2070542,311.692132 85.9606219,311.759235 85.8171297,311.839148 C85.4265814,312.057536 82.2136042,312.052046 81.6808114,311.831827 C81.4680687,311.743984 80.8816223,311.587208 80.3781519,311.483504 C79.8740576,311.379191 79.3967901,311.241325 79.3175575,311.177273 C79.2377009,311.112611 78.8172064,310.972916 78.3823627,310.866772 C77.947519,310.760628 77.5195379,310.602632 77.4309471,310.516009 C77.3423563,310.429995 77.0996673,310.28908 76.8906678,310.203677 C76.6816683,310.118884 76.3940601,309.941977 76.2511918,309.811432 C76.1083235,309.680888 75.8943329,309.545462 75.7757959,309.510691 C75.3808804,309.394787 73.5042522,307.661102 73.3888345,307.306069 C73.3545212,307.199315 73.2827751,307.111472 73.2303692,307.111472 C73.0107638,307.111472 71.7368027,304.880009 71.6332388,304.315128 C71.5926866,304.09186 71.4335975,303.680095 71.2794993,303.400094 L71.0000015,302.891945 L71.0000015,300.553728 C71.0000015,298.296035 71.0087358,298.201481 71.2395711,297.819607 C71.3705857,297.601829 71.5421524,297.185183 71.6195134,296.892982 C71.7898324,296.256119 72.0974048,295.639386 72.5721768,294.986662 C72.7655793,294.721302 72.9240446,294.457772 72.9240446,294.40165 C72.9240446,294.345528 73.04071,294.199732 73.1835783,294.078338 C73.3270705,293.956943 73.4437359,293.813588 73.4437359,293.760516 C73.4437359,293.707444 73.5491715,293.576289 73.6776905,293.469535 C74.5018348,292.78509 75.0938961,292.276941 75.3871192,292.001821 C75.5724113,291.827354 75.8774882,291.624827 76.0652758,291.551014 C76.2536873,291.477201 76.5394239,291.310665 76.7010086,291.18134 C76.8625933,291.051405 77.0641062,290.945872 77.1483299,290.945872 C77.3323742,290.945872 77.9044713,290.665261 78.0897634,290.484084 C78.1627573,290.412712 78.422291,290.323648 78.6668516,290.287047 C79.1509817,290.213844 79.7199595,290.066219 80.0462482,289.929574 C80.9271655,289.56051 84.8357679,289.218897 86.0255054,289.407394 C86.3967134,289.465957 87.0754939,289.56295 87.5327972,289.622732 C87.9907245,289.682515 88.5752992,289.773408 88.8329612,289.82404 C91.1151109,290.273627 91.7726795,290.429792 91.9280254,290.557897 C92.0272221,290.63964 92.3185737,290.764695 92.5762357,290.836677 C93.0740912,290.975153 93.2462819,291.047745 93.8239939,291.358857 C94.3212255,291.627267 95.0074925,291.618727 95.2919814,291.339946 C95.5783419,291.059946 95.4972376,288.826653 95.1672056,287.901858 C95.0586506,287.598067 94.9207733,287.071618 94.8608809,286.733055 C94.7423439,286.06386 94.5676578,285.556931 94.4559834,285.556931 C94.4173029,285.556931 94.323721,285.385515 94.2482317,285.175667 C94.1727423,284.966429 94.0067905,284.657148 93.8795191,284.489392 C93.7522478,284.321635 93.6293436,284.130698 93.6062601,284.064816 C93.441556,283.598149 91.8949598,282.076142 91.2685852,281.76442 C91.0932752,281.677187 90.8880189,281.533222 90.8131534,281.445379 C90.738288,281.356925 90.4300917,281.21479 90.1275103,281.128777 C89.8255529,281.042764 89.5279625,280.913439 89.4668224,280.841456 C89.4056822,280.769473 89.1561306,280.652349 88.9121939,280.581587 C88.6682572,280.510214 88.3538221,280.40834 88.2134493,280.354048 C87.0636402,279.910562 82.6914955,279.86908 81.0862547,280.285726 C80.857291,280.345508 80.398116,280.431521 80.0655885,280.477883 C79.7330609,280.524244 79.2869874,280.650519 79.0742446,280.758493 C77.4359381,281.593614 76.2543112,281.176969 76.1145622,279.714134 C76.0783773,279.3347 75.9573447,278.874133 75.8381838,278.663065 C75.6210739,278.276921 75.2267823,276.944021 75.1381915,276.295567 C75.0938961,275.969205 75.120099,275.918573 75.3839998,275.816089 C76.1357741,275.523889 77.3036758,275.186546 77.5694483,275.184106 C77.7310329,275.182886 78.143417,275.067592 78.4865505,274.927896 C79.1116774,274.674127 79.6095329,274.580184 81.4499762,274.369726 C81.9933748,274.308113 82.8356116,274.194649 83.3216134,274.117786 C84.649852,273.907329 88.0830586,273.992732 89.2484647,274.264192 M210.481997,274.084572 C208.798069,274.24584 207.833287,274.392503 207.214602,274.581765 C206.877694,274.684611 206.315976,274.818494 205.965592,274.87935 C204.310455,275.16659 202.515654,275.921811 202.39988,276.380056 C202.312284,276.727543 202.534644,278.028034 202.779055,278.593994 C202.884415,278.838634 202.999577,279.278622 203.034493,279.571339 C203.28993,281.711641 204.056243,282.300117 205.56314,281.513859 C205.741395,281.42075 206.277998,281.26435 206.755182,281.166372 C207.232366,281.068394 207.990715,280.888261 208.439722,280.765332 C210.091796,280.31439 213.448625,280.331429 214.923056,280.798803 C215.343885,280.932686 215.895189,281.103082 216.148176,281.177935 C217.011273,281.434138 219.509293,283.078464 219.518481,283.396741 C219.519706,283.42656 219.663658,283.610345 219.83885,283.805692 C220.01343,284.000431 220.218637,284.305928 220.294595,284.483018 C220.370552,284.660717 220.478363,284.833548 220.533493,284.867627 C220.705623,284.973517 221.32002,286.452315 221.452333,287.077305 C221.501951,287.314034 221.640389,287.963975 221.760451,288.522024 C222.298279,291.031721 222.040391,291.571512 220.62354,290.90514 C220.267642,290.738395 219.916033,290.601469 219.842526,290.600861 C219.768406,290.600861 219.470089,290.490103 219.179123,290.354395 C218.480192,290.029424 217.521536,289.741576 216.454456,289.536491 C215.97666,289.445208 215.149704,289.276637 214.616777,289.162836 C213.209114,288.862817 210.918752,288.798918 209.690569,289.026519 C207.485966,289.434253 206.224092,289.706888 205.863907,289.853551 C204.783351,290.293539 203.800805,290.762738 203.41918,291.021984 C203.183957,291.180818 202.943221,291.311049 202.88319,291.311049 C202.823159,291.311049 202.603863,291.470492 202.395593,291.665839 C202.187322,291.861186 201.977827,292.021237 201.93066,292.021237 C201.756693,292.021237 200.108294,293.806141 199.682564,294.455473 C199.160663,295.251468 198.877048,295.802822 198.628961,296.505099 C198.48501,296.911617 198.292666,297.449583 198.200782,297.700918 C197.883476,298.571765 197.959433,302.655804 198.30798,303.448148 C198.459282,303.791984 198.631412,304.286134 198.690217,304.546597 C198.755761,304.838705 199.091444,305.469172 199.566791,306.193357 C200.701252,307.922273 202.229589,309.366992 203.692382,310.093003 C203.945369,310.218366 204.240011,310.401542 204.347209,310.500129 C204.455019,310.598107 204.799278,310.752681 205.112909,310.842747 C205.426539,310.932814 205.729144,311.042963 205.785499,311.086171 C205.841855,311.129987 206.209391,311.245005 206.602042,311.341157 C206.995305,311.437918 207.435736,311.577278 207.580913,311.652131 C208.483826,312.114635 212.875269,312.116461 214.180634,311.654565 C214.586761,311.510945 215.000239,311.393493 215.100086,311.393493 C215.199321,311.393493 215.602386,311.274824 215.995036,311.129379 C216.3883,310.983933 216.858133,310.816579 217.040064,310.757549 C217.221994,310.698519 217.451704,310.57559 217.550326,310.484915 C217.649561,310.393631 217.936852,310.237231 218.189839,310.138036 C218.442214,310.038232 218.730729,309.883658 218.830577,309.794809 C218.930424,309.705959 219.166259,309.538606 219.354315,309.422979 C219.813735,309.140608 220.80302,308.297754 221.296743,307.767699 C221.686331,307.348402 221.972397,307.246164 222.256012,307.424472 C222.399963,307.515756 222.532276,308.346439 222.676841,310.061966 C222.739322,310.808059 222.813441,311.161632 222.931666,311.279084 C223.16015,311.506685 228.658489,311.531636 228.798765,311.305861 C229.074417,310.863438 229.063391,288.128286 228.787126,287.355416 C228.697693,287.104081 228.56783,286.579504 228.498611,286.188809 C228.294628,285.038024 227.797229,283.177051 227.623262,282.913545 C227.534441,282.779053 227.352511,282.368885 227.21836,282.002532 C227.084822,281.635571 226.936583,281.309383 226.890028,281.27713 C226.842861,281.245485 226.686046,281.005713 226.541481,280.744641 C226.240714,280.203023 225.176698,278.772301 224.989254,278.657892 C224.920648,278.61651 224.79446,278.479585 224.708702,278.354221 C224.266434,277.710366 222.605171,276.499942 221.16198,275.771497 C220.635178,275.505557 220.152481,275.246311 220.09,275.196409 C220.027519,275.146507 219.631805,275.024187 219.210976,274.924383 C218.789535,274.825188 218.35033,274.683394 218.235168,274.609758 C217.509285,274.148471 213.005131,273.843583 210.481997,274.084572 M215.629076,274.065592 C216.83097,274.128568 217.220455,274.18784 217.609321,274.366889 C217.874964,274.489137 218.362904,274.659543 218.692945,274.745363 C219.447147,274.941082 220.688051,275.410933 220.892391,275.578251 C220.977223,275.648019 221.255869,275.785702 221.511605,275.88387 C221.766721,275.982039 222.068897,276.143183 222.182213,276.241352 C222.295529,276.340137 222.551264,276.507456 222.750032,276.613033 C222.948799,276.718611 223.244164,276.926679 223.406398,277.075475 C223.993412,277.612006 224.140166,277.731784 224.423147,277.907746 C224.581046,278.005914 224.710462,278.157798 224.710462,278.244853 C224.710462,278.332525 224.776098,278.429459 224.855977,278.459712 C225.010161,278.518984 225.636805,279.318532 226.037436,279.966814 C226.16809,280.179204 226.312367,280.352697 226.35757,280.352697 C226.402772,280.352697 226.499369,280.503345 226.572437,280.687334 C226.644885,280.871322 226.808976,281.163976 226.937153,281.337468 C227.064711,281.510961 227.224468,281.858564 227.291343,282.109233 C227.358219,282.359902 227.507449,282.719236 227.623242,282.908164 C227.739035,283.096474 227.921084,283.691659 228.026969,284.23066 C228.133474,284.76966 228.253601,285.26359 228.29385,285.328418 C228.381159,285.469805 228.706866,287.278204 228.851762,288.430912 C229.00285,289.626839 229.061675,309.73594 228.916779,310.634275 C228.817705,311.252921 228.774979,311.339359 228.53782,311.406039 C228.055453,311.541252 223.497422,311.495564 223.355622,311.354177 C223.276982,311.275765 223.174193,310.531167 223.085645,309.398834 C222.870159,306.630359 222.606374,306.458101 220.989608,308.033736 C220.466991,308.543101 220.006297,308.959854 219.964809,308.959854 C219.923941,308.959854 219.744988,309.098771 219.566655,309.26856 C219.388321,309.438348 219.180885,309.577266 219.105341,309.577266 C219.029178,309.577266 218.859513,309.691487 218.727621,309.831022 C218.595728,309.971174 218.323893,310.139728 218.123268,310.205791 C217.922643,310.271854 217.558546,310.452138 217.313956,310.607108 C217.068748,310.761461 216.678643,310.918284 216.445819,310.955946 C216.212995,310.992991 215.843324,311.114621 215.623503,311.226372 C215.403683,311.338124 215.11451,311.429501 214.98076,311.429501 C214.691587,311.429501 213.718803,311.696223 213.368328,311.871568 C213.029618,312.040739 208.949001,312.043826 208.601003,311.874655 C208.464776,311.808592 207.935348,311.653621 207.424497,311.529522 C206.913646,311.406039 206.447998,311.266504 206.389792,311.219581 C206.331586,311.172658 205.913616,311.036827 205.460971,310.917667 C205.008326,310.799124 204.566208,310.617604 204.478899,310.514497 C204.39097,310.411389 204.153192,310.272471 203.949471,310.205791 C203.74575,310.138493 203.500541,309.997106 203.404563,309.891528 C203.308585,309.785333 203.090003,309.640859 202.919719,309.570474 C202.749435,309.500089 202.483174,309.322275 202.328989,309.175331 C201.054648,307.962116 200.672593,307.579321 200.380944,307.222457 C200.196418,306.997102 200.04533,306.779155 200.04533,306.738406 C200.04533,306.69704 199.936348,306.52046 199.802598,306.345115 C199.668848,306.170387 199.47813,305.864769 199.377818,305.666579 C199.277505,305.46839 199.110937,305.214017 199.007528,305.100413 C198.899785,304.982487 198.770369,304.5929 198.705971,304.188496 C198.643431,303.800144 198.507204,303.314241 198.402557,303.108642 C197.873748,302.066451 197.863841,299.130658 198.385219,298.000795 C198.489866,297.774205 198.608135,297.380296 198.648384,297.125922 C198.720832,296.664098 198.833529,296.402933 199.377818,295.42804 C199.536336,295.145265 199.766065,294.728512 199.889288,294.501922 C200.14007,294.04195 200.969197,293.11892 201.784701,292.392226 C201.975418,292.222438 202.164279,292.08352 202.203908,292.08352 C202.244157,292.08352 202.409487,291.945837 202.571721,291.777284 C202.733336,291.608731 203.031178,291.416716 203.233041,291.350035 C203.435524,291.283355 203.677636,291.132089 203.771138,291.013546 C203.865258,290.894385 204.168054,290.731389 204.444842,290.651125 C204.721011,290.570861 205.063436,290.421448 205.205236,290.320192 C205.52475,290.09175 207.779926,289.541019 209.384927,289.299611 C211.163928,289.032271 214.898404,289.229226 216.093486,289.653388 C216.320119,289.734269 216.947382,289.879978 217.486717,289.977529 C218.025433,290.07508 218.608732,290.239929 218.782731,290.343654 C218.95611,290.447379 219.359838,290.600497 219.679971,290.683848 C220.000104,290.766581 220.392686,290.930195 220.551204,291.046886 C220.94069,291.33213 221.970442,291.538963 222.171686,291.372262 C222.49925,291.101218 222.448475,288.50068 222.101096,287.761638 C222.008214,287.563449 221.855268,287.054701 221.760528,286.629922 C221.666408,286.20576 221.478786,285.65009 221.343798,285.395716 C221.208809,285.14196 221.098589,284.903021 221.098589,284.865977 C221.098589,284.674579 220.099179,283.278611 219.679971,282.88532 C218.740624,282.003038 218.406249,281.739403 217.972799,281.535658 C217.700965,281.407853 217.393835,281.226952 217.289807,281.133722 C217.186398,281.040493 216.782671,280.873175 216.393186,280.762041 C216.0037,280.650906 215.521333,280.482353 215.321327,280.387889 C214.068658,279.795174 209.014018,279.866176 207.654845,280.495936 C207.33595,280.643497 206.80838,280.775006 206.366881,280.81699 C205.837453,280.867618 205.537754,280.952821 205.337748,281.109026 C205.121642,281.278814 204.913587,281.330677 204.4467,281.330677 L203.837394,281.330677 L203.713551,280.917011 C203.645437,280.689186 203.51726,280.387889 203.428093,280.247737 C203.338927,280.107584 203.23366,279.668604 203.193411,279.272226 C203.153782,278.876465 203.006409,278.204721 202.867086,277.780559 C202.727144,277.35578 202.587821,276.800109 202.556241,276.545118 L202.499273,276.081442 L203.207653,275.749892 C203.596519,275.567755 204.124089,275.367714 204.379825,275.30659 C204.634941,275.244849 205.090062,275.104696 205.389762,274.995415 C205.69008,274.885515 206.084519,274.793521 206.267187,274.790434 C206.561314,274.784877 207.310562,274.602741 208.404712,274.269956 C209.209071,274.025461 212.882245,273.921735 215.629076,274.065592 M145.537411,275.051332 C143.881174,275.160799 142.510853,275.353726 142.070982,275.540605 C141.844937,275.636161 141.501593,275.746837 141.307317,275.785543 C141.113651,275.824249 140.761144,275.943392 140.523491,276.05044 C140.286449,276.156882 140.028636,276.243971 139.951659,276.243971 C139.874681,276.243971 139.495903,276.398797 139.110405,276.588095 C138.724907,276.777393 138.233718,277.003583 138.01867,277.090672 C137.803621,277.177761 137.490824,277.363431 137.323429,277.502532 C137.156033,277.642237 136.971532,277.755937 136.913493,277.755937 C136.813301,277.755937 135.820536,278.429669 135.711179,278.571794 C135.683076,278.608081 135.513237,278.726014 135.333623,278.833666 C134.960344,279.056833 133.685328,280.162382 133.222242,280.66375 C133.051181,280.848815 132.733496,281.187495 132.516615,281.416104 C132.299123,281.644714 132.00221,282.014238 131.856198,282.238009 C131.710185,282.46178 131.515909,282.712766 131.425491,282.796227 C131.334462,282.879083 131.16279,283.136722 131.043658,283.36896 C130.924526,283.600593 130.775459,283.821945 130.711922,283.860651 C130.648996,283.898752 130.485877,284.163044 130.349028,284.446689 C130.21218,284.730938 129.965363,285.189971 129.800411,285.466963 C129.63546,285.74456 129.42591,286.220527 129.335492,286.52534 C129.244463,286.830152 129.055074,287.352083 128.913949,287.684715 C128.772824,288.017348 128.59382,288.652373 128.515621,289.095682 C128.438033,289.539595 128.295075,290.10628 128.199158,290.356057 C127.910798,291.102968 127.943789,295.667895 128.244978,296.706313 C128.365943,297.121802 128.494239,297.679415 128.530894,297.944916 C128.594431,298.403949 128.720894,298.78194 129.049576,299.494983 C129.130219,299.670976 129.226135,299.965507 129.262791,300.150572 C129.333659,300.511025 129.820572,301.548233 130.346585,302.460251 C130.636166,302.962829 130.77607,303.18539 131.171343,303.776266 C132.55877,305.847055 136.597642,309.507222 137.495101,309.507222 C137.569634,309.507222 137.759634,309.614874 137.918477,309.745508 C138.076708,309.876746 138.32047,310.017662 138.460373,310.058787 C138.600888,310.099913 138.966836,310.258367 139.275357,310.410168 C139.948604,310.741591 141.202848,311.158289 142.177284,311.374198 C142.568892,311.460682 143.187766,311.631837 143.551881,311.754608 C144.473778,312.064259 149.711299,312.087845 150.475575,311.785452 C150.727279,311.685662 151.208693,311.542328 151.544706,311.46673 C151.880718,311.391736 152.521586,311.214534 152.968788,311.073619 C153.416602,310.932703 153.838145,310.817794 153.905958,310.817794 C153.973772,310.817794 154.364157,310.647849 154.772871,310.439803 C155.181584,310.231756 155.612902,310.016452 155.731423,309.960812 C157.917338,308.938118 160.607272,306.751815 162.1792,304.719733 C162.665502,304.090755 163.407174,302.964038 163.407174,302.853967 C163.407174,302.798931 163.447495,302.754177 163.497592,302.754177 C163.597174,302.754177 164.627205,300.722095 164.632093,300.514653 C164.633925,300.443289 164.749392,300.158434 164.889295,299.881442 C165.029198,299.603845 165.208202,299.127878 165.287623,298.823066 C165.366433,298.517649 165.499616,298.0187 165.583314,297.713888 C166.152092,295.637656 166.135596,291.10962 165.552156,289.045484 C165.450131,288.685032 165.308394,288.163706 165.236304,287.886109 C165.164825,287.609117 164.998652,287.196652 164.867301,286.970462 C164.735951,286.743667 164.629038,286.496915 164.629038,286.421921 C164.629038,286.053606 163.174409,283.477216 162.438846,282.543426 C161.973927,281.95255 160.665922,280.461751 160.338462,280.149077 C160.177787,279.996066 160.047047,279.833378 160.047047,279.787415 C160.047047,279.741451 159.927916,279.650128 159.782514,279.584206 C159.558302,279.483207 158.577145,278.741739 158.417692,278.552441 C158.319331,278.435717 157.019879,277.655543 156.923963,277.655543 C156.870812,277.655543 156.738239,277.574501 156.629493,277.475316 C156.374735,277.243683 154.863289,276.501005 154.141167,276.253648 C153.833257,276.14781 153.375058,275.99117 153.122743,275.905291 C150.972262,275.172895 148.284772,274.869897 145.537411,275.051332 M149.552544,275.222139 C149.921187,275.304829 150.638679,275.462248 151.147727,275.570664 C151.656775,275.679693 152.25984,275.856713 152.488076,275.964517 C152.716313,276.071708 153.072585,276.190538 153.28041,276.227289 C153.488236,276.264653 153.743687,276.373682 153.848219,276.469848 C153.95275,276.566627 154.290466,276.734458 154.598493,276.842874 C154.907138,276.951903 155.264028,277.144236 155.392064,277.270415 C155.520717,277.397208 155.675968,277.500111 155.737202,277.500111 C155.798436,277.500111 156.090381,277.661205 156.384801,277.857825 C156.67922,278.053832 156.966217,278.214926 157.021266,278.214926 C157.076933,278.214926 157.21672,278.304966 157.331766,278.414608 C157.778962,278.840311 158.378315,279.315017 158.639953,279.450997 C158.790255,279.5294 159.260336,279.983279 159.684027,280.461047 C160.107719,280.938202 160.587696,281.475385 160.750987,281.654854 C161.293436,282.252676 161.660223,282.750657 162.163086,283.568988 C162.437094,284.015517 162.719142,284.42897 162.790892,284.487772 C162.862022,284.547187 162.979543,284.801384 163.05191,285.053743 C163.124278,285.30549 163.293755,285.642378 163.429212,285.801634 C163.56467,285.96089 163.675386,286.185686 163.675386,286.30084 C163.675386,286.415382 163.807751,286.768195 163.969805,287.083644 C164.131241,287.399706 164.297007,287.887887 164.337211,288.168422 C164.377415,288.448958 164.45102,288.816471 164.501121,288.984915 C164.974294,290.5787 165.164801,294.765906 164.833889,296.28435 C164.766469,296.593062 164.617404,297.277862 164.502976,297.805857 C164.38793,298.333239 164.293914,298.854496 164.293914,298.964138 C164.293914,299.073167 164.205464,299.2851 164.097841,299.43578 C163.989598,299.585848 163.82507,299.968063 163.732291,300.284737 C163.638893,300.602024 163.497869,300.914411 163.418697,300.97995 C163.339526,301.044878 163.195409,301.335826 163.098918,301.626162 C163.00181,301.916498 162.834807,302.269311 162.727183,302.409579 C162.61956,302.549847 162.29607,303.032515 162.009073,303.481494 C161.721457,303.930473 161.399204,304.380677 161.292199,304.480519 C161.185812,304.580972 161.0986,304.710827 161.0986,304.767792 C161.0986,304.892747 160.793047,305.228409 159.758251,306.240297 C158.6282,307.345901 158.33007,307.616023 158.241621,307.616023 C158.198324,307.616023 158.046166,307.733015 157.903905,307.875733 C157.672575,308.107879 157.007039,308.571559 156.415727,308.913959 C156.298207,308.981949 156.131823,309.120992 156.047085,309.222671 C155.961728,309.324962 155.692668,309.467067 155.44835,309.538732 C155.204031,309.610398 154.910849,309.761691 154.79704,309.875008 C154.683231,309.987712 154.379534,310.14268 154.123463,310.219245 C153.866774,310.295811 153.575448,310.430566 153.477102,310.519382 C153.378138,310.607585 152.90682,310.768678 152.429935,310.877095 C151.95305,310.985511 151.353697,311.14293 151.098863,311.226845 C150.456831,311.438166 149.681198,311.620698 149.191942,311.675825 C148.964943,311.701551 148.714439,311.774441 148.634649,311.838756 C148.37796,312.045176 143.749517,312.057427 143.340052,311.852231 C143.156349,311.760965 142.612045,311.601709 142.130212,311.499418 C141.648379,311.396514 141.123249,311.261759 140.963669,311.199894 C140.804089,311.137417 140.354419,311.021038 139.964747,310.940797 C139.575074,310.859944 139.056748,310.685375 138.811811,310.552458 C138.567493,310.41954 138.17782,310.256609 137.946491,310.189844 C137.715162,310.123079 137.393527,309.955861 137.232091,309.818655 C137.070656,309.680838 136.819533,309.539345 136.673561,309.503206 C136.528207,309.467067 136.261003,309.326187 136.080393,309.190207 C135.900401,309.054227 135.704947,308.94336 135.646186,308.94336 C135.587426,308.94336 135.381457,308.805543 135.187239,308.637099 C134.99364,308.468655 134.787052,308.330837 134.727673,308.330837 C134.668913,308.330837 134.288518,308.020288 133.882146,307.641749 C133.476391,307.262598 133.056411,306.911622 132.949406,306.861395 C132.841782,306.811168 132.726117,306.684988 132.692717,306.58086 C132.659316,306.476118 132.596227,306.390977 132.552311,306.390977 C132.410668,306.390977 131.61586,305.542021 131.17052,304.91541 C130.933006,304.580972 130.588486,304.158944 130.404165,303.977637 C130.219843,303.796331 130.068304,303.588073 130.067685,303.513958 C130.067067,303.439842 129.905013,303.177683 129.707084,302.931448 C129.509155,302.684602 129.347101,302.426729 129.347101,302.358127 C129.347101,302.290137 129.241332,302.078204 129.111442,301.887709 C128.982169,301.697827 128.815167,301.381153 128.740325,301.184533 C128.666102,300.987913 128.566519,300.735554 128.518892,300.62285 C128.471884,300.510758 128.311685,300.034215 128.163239,299.563798 C128.014174,299.09338 127.827997,298.645013 127.750062,298.567223 C127.671509,298.489432 127.58306,298.230948 127.55337,297.993289 C127.467395,297.293175 127.27627,296.068742 127.167409,295.518697 C127.008448,294.713229 126.942265,292.516722 127.059785,291.948301 C127.117927,291.665928 127.265755,290.769194 127.387605,289.955151 C127.544093,288.907737 127.682024,288.335641 127.859542,287.999978 C127.997473,287.739044 128.110045,287.473209 128.110045,287.408894 C128.110045,287.161435 128.870216,285.296915 129.090412,285.004742 C129.217828,284.835685 129.377409,284.525136 129.445447,284.314428 C129.513485,284.104333 129.611212,283.931602 129.66255,283.931602 C129.713888,283.931602 129.848108,283.752132 129.961299,283.532849 C130.074489,283.312953 130.307056,282.980966 130.478388,282.795372 C130.650339,282.609165 130.790744,282.40642 130.790744,282.345167 C130.790744,282.283302 130.906409,282.133234 131.048052,282.011342 C131.190313,281.88945 131.305978,281.735095 131.305978,281.66833 C131.305978,281.601565 131.456899,281.399432 131.64122,281.21935 C131.825541,281.038656 132.022233,280.841424 132.079137,280.780784 C132.136042,280.720144 132.507159,280.373456 132.903635,280.01023 C133.30073,279.647004 133.718236,279.261727 133.831426,279.154536 C133.945235,279.047344 134.153679,278.901564 134.295322,278.829899 C134.437583,278.758233 134.738806,278.565901 134.965806,278.40297 C135.912772,277.72307 137.11086,276.995393 137.468988,276.883913 C137.679287,276.817761 138.014529,276.65973 138.213076,276.532938 C138.411005,276.406146 138.874901,276.222389 139.243543,276.124385 C139.612186,276.026994 139.960417,275.910615 140.016703,275.866513 C140.94635,275.142511 147.297392,274.713132 149.552544,275.222139 M189.845278,274.056746 C189.760073,274.107488 189.320469,274.229394 188.867282,274.328404 C188.414712,274.426795 187.915218,274.574072 187.757775,274.655137 C187.600333,274.736201 187.173694,274.894617 186.81065,275.007241 C186.446989,275.119864 186.119138,275.260335 186.08271,275.31974 C186.046283,275.379146 185.743129,275.546226 185.409721,275.691027 C185.075696,275.836448 184.802795,275.993008 184.802795,276.039418 C184.802795,276.085211 184.558914,276.285705 184.260699,276.483725 C183.808129,276.785087 182.341136,278.22073 181.970683,278.724442 C181.913262,278.803031 181.658267,279.145853 181.40389,279.486199 C181.150129,279.826546 180.857471,280.236818 180.75498,280.39709 C180.514803,280.772709 180.23758,280.572833 180.085077,279.913798 C179.980733,279.463922 179.618924,278.187933 179.203399,276.804888 C179.066949,276.350681 178.897775,275.782612 178.827389,275.541275 C178.501391,274.430508 178.11612,274.21083 177.138124,274.579642 C176.797307,274.707736 176.185442,274.898949 175.777327,275.004765 C175.369828,275.110582 174.860456,275.285706 174.645593,275.393998 C174.43073,275.50229 174.070156,275.622339 173.843562,275.660706 C172.238884,275.932364 171.719632,276.55427 172.138861,277.703403 C172.248762,278.002908 172.392004,278.457116 172.457451,278.712685 C172.523515,278.967635 172.6612,279.362437 172.763074,279.589541 C172.864949,279.816026 173.05141,280.535704 173.177982,281.187932 C173.303936,281.840159 173.447795,282.452783 173.497189,282.548698 C173.864555,283.259713 173.931236,285.371717 173.991126,298.072827 C174.046077,309.888417 174.05966,310.58458 174.233155,310.758466 C174.501116,311.027649 180.387614,311.096956 180.933414,310.837055 C181.407594,310.611808 181.396481,310.8451 181.400185,301.24795 C181.40389,292.428646 181.419325,292.127903 181.976857,289.954637 C182.12936,289.358721 182.336196,288.732484 182.436836,288.56231 C182.537476,288.392137 182.652933,288.090157 182.693683,287.891518 C182.985724,286.466395 185.333778,283.256 186.530341,282.645852 C186.684079,282.567882 186.902646,282.418748 187.016869,282.314788 C187.130475,282.210827 187.408315,282.049936 187.634291,281.956496 C187.85965,281.863055 188.183179,281.723204 188.35297,281.645233 C189.709445,281.02209 190.101507,280.952164 192.32793,280.937932 C194.771067,280.922461 194.740196,280.9336 194.837748,280.072214 C194.874176,279.749813 195.018653,279.114912 195.158808,278.661324 C195.29958,278.207116 195.482954,277.41875 195.566923,276.908849 C195.650893,276.398329 195.786725,275.877909 195.86946,275.75229 C196.250409,275.16875 195.772525,274.577785 194.762423,274.38286 C194.406788,274.314172 193.907294,274.211449 193.652299,274.155137 C193.035495,274.017761 190.041,273.940409 189.845278,274.056746 M194.550505,274.136117 C196.577957,274.387021 196.600174,274.393293 196.827421,274.733895 C196.94041,274.903882 197.016582,275.098959 196.996905,275.167958 C196.977227,275.236956 196.894072,275.716809 196.811552,276.234297 C196.728397,276.751786 196.57034,277.339527 196.45989,277.540877 C196.310719,277.811225 195.921606,279.739418 195.921606,280.206098 C195.921606,280.404939 195.242403,280.482719 193.299375,280.506555 C191.184325,280.532273 191.085301,280.542936 190.449897,280.814539 C190.088079,280.968845 189.740225,281.095551 189.676748,281.095551 C189.448866,281.095551 187.793389,281.943605 187.736894,282.089756 C187.705156,282.171299 187.514725,282.30616 187.314138,282.389585 C187.113551,282.472383 186.918042,282.63798 186.879322,282.758413 C186.840601,282.878847 186.754907,282.977327 186.688256,282.977327 C186.53972,282.977327 185.025161,284.554255 185.025161,284.709815 C185.025161,284.771913 184.909633,284.929982 184.76808,285.061079 C184.627161,285.191549 184.407531,285.55285 184.279942,285.863343 C184.152354,286.173209 184.011435,286.427249 183.966367,286.427249 C183.860995,286.427249 183.592488,287.100297 183.502985,287.589559 C183.464899,287.797808 183.339215,288.075684 183.224322,288.206781 C183.108794,288.337878 183.014848,288.531701 183.014848,288.63708 C183.014848,288.74246 182.877738,289.240503 182.710159,289.744819 C182.159179,291.400782 182.06206,293.260603 182.053808,302.265527 C182.045556,311.345094 182.102685,310.794988 181.15434,310.921067 C179.891784,311.0898 175.53473,310.96623 175.322082,310.755471 C175.143712,310.579212 175.129747,309.898636 175.074522,298.419805 C175.035167,290.261053 174.978038,286.115501 174.901231,285.79999 C174.838388,285.540932 174.753329,284.677197 174.712704,283.880579 C174.660653,282.860029 174.576864,282.257861 174.428962,281.841989 C174.183942,281.152004 174.055718,280.640161 173.924956,279.825352 C173.87227,279.50106 173.758646,279.124705 173.671683,278.989217 C173.471731,278.678097 172.935351,276.616925 173.006445,276.433765 C173.035644,276.357867 173.240675,276.20858 173.461574,276.101946 C173.682474,275.995312 173.958599,275.854179 174.075396,275.788944 C174.191559,275.723709 174.651766,275.594494 175.098009,275.502287 C175.544252,275.41008 175.963199,275.270828 176.029215,275.193048 C176.094596,275.114641 176.514813,274.970371 176.96296,274.872519 C177.411107,274.774667 177.871949,274.645451 177.986843,274.585862 C178.825372,274.148035 179.339535,274.582098 179.674693,276.008484 C179.759118,276.367276 179.949548,277.020252 180.098719,277.459333 C180.24789,277.898414 180.369765,278.370113 180.369765,278.508109 C180.369765,278.822993 180.843303,280.212371 181.064203,280.545445 C181.287007,280.881029 181.625973,280.817048 181.864012,280.394276 C181.968114,280.210489 182.149023,279.964604 182.26582,279.849188 C182.382618,279.733773 182.611135,279.442725 182.773001,279.203112 C182.935502,278.963499 183.14561,278.652379 183.240191,278.5125 C183.334771,278.372622 183.513776,278.18758 183.636921,278.102273 C183.760067,278.016966 183.860995,277.889633 183.860995,277.818752 C183.860995,277.748499 184.001279,277.608621 184.172032,277.508887 C184.343419,277.409153 184.512268,277.236656 184.547815,277.125632 C184.583362,277.015234 184.711585,276.892919 184.833461,276.855283 C185.077212,276.778758 185.937959,276.152754 186.188058,275.870487 C186.275656,275.77138 186.537816,275.625229 186.770776,275.545567 C187.003101,275.465906 187.312869,275.317873 187.458231,275.216257 C187.603593,275.114641 188.032062,274.939636 188.410384,274.826729 C188.788707,274.713823 189.370155,274.525645 189.702139,274.408348 C190.251214,274.215152 191.62422,274.037638 192.857576,274.00063 C193.12164,273.993102 193.883363,274.053947 194.550505,274.136117 M25.9953233,276.369619 C25.77156,276.609336 25.5881984,276.857637 25.5881984,276.922011 C25.5881984,276.986385 25.4955853,277.136591 25.3830821,277.256756 C25.2699573,277.376308 25.0996486,277.672429 25.0045492,277.914599 C24.9094498,278.156768 24.747843,278.447372 24.6452848,278.56018 C24.5427266,278.673601 24.3618513,278.981984 24.243754,279.245611 C24.1256567,279.509852 23.9876693,279.750795 23.9373226,279.781449 C23.7595551,279.889353 22.9987599,281.361988 23.0000015,281.593735 C23.0024893,281.943194 23.0783202,282.01983 24.0361514,282.637209 C24.5197287,282.948657 24.9846591,283.26501 25.070435,283.34042 C25.1555894,283.415217 25.4011074,283.576459 25.6161688,283.69785 C25.8306086,283.819241 26.0636954,283.967608 26.1339322,284.027691 C26.204169,284.08716 26.5491374,284.352627 26.8996999,284.617481 C27.250884,284.882334 27.7170575,285.233633 27.9358483,285.399167 C28.154639,285.5647 28.4337216,285.794608 28.5561698,285.909868 C28.6786181,286.025742 29.2604026,286.557288 29.8496459,287.091287 C30.4382677,287.625286 30.9995406,288.153767 31.0965047,288.265962 C31.1934688,288.37877 31.6179975,288.86127 32.0394183,289.338865 C32.4614608,289.81646 32.9363362,290.411154 33.0948352,290.659454 C33.2533342,290.907755 33.4746112,291.206941 33.5864929,291.323428 C33.6983745,291.440527 33.8606029,291.669822 33.9476219,291.832903 C34.0340194,291.995984 34.19314,292.22344 34.3012923,292.337474 C34.4094445,292.451508 34.4977067,292.57903 34.4977067,292.620107 C34.4977067,292.661797 34.6083452,292.825491 34.7438463,292.984281 C34.8787259,293.14307 35.2038042,293.680748 35.4661045,294.178575 C35.7277832,294.677014 35.985111,295.13683 36.0373224,295.200591 C36.2474113,295.457474 37.0492298,297.082768 37.1778936,297.513769 C37.253103,297.766361 37.3749297,298.04225 37.4476527,298.126856 C37.6720376,298.384966 38.2047185,299.574355 38.3862154,300.221162 C38.4813148,300.558359 38.6460294,300.985068 38.7529386,301.168381 C38.8598477,301.352307 39.0239408,301.766141 39.1177971,302.088012 C39.2110318,302.410496 39.3241565,302.719492 39.3682876,302.775896 C39.4434969,302.871537 39.8487571,304.149824 40.2919328,305.68806 C40.3969772,306.05346 40.5567193,306.520019 40.6468462,306.72479 C40.7369731,306.929561 40.8842839,307.458655 40.9750323,307.900078 C41.1416117,308.712419 41.5891383,310.254946 41.7762292,310.660809 C41.9266479,310.986972 42.047853,310.998621 45.3750888,311 C49.071534,311.001686 49.0684262,311.002299 49.2890817,310.030556 C49.5358428,308.946005 49.945454,307.497893 50.243805,306.658577 C50.4035472,306.209184 50.5825578,305.577704 50.642228,305.255833 C50.7012766,304.933962 50.8162661,304.520129 50.8983126,304.336202 C50.9797376,304.152276 51.1718011,303.634218 51.3259492,303.184825 C52.1116069,300.889427 52.5678354,299.727626 52.8313788,299.35303 C52.9295861,299.212633 53.0433324,298.959428 53.0831125,298.790829 C53.1521062,298.497774 53.7923178,297.085834 54.1484744,296.440866 C54.2410876,296.272267 54.5220348,295.744399 54.7719038,295.268644 C55.0211512,294.792275 55.2878025,294.33246 55.364255,294.246627 C55.4400858,294.160795 55.5805595,293.937631 55.676902,293.75064 C55.772623,293.563648 56.0001156,293.214802 56.1816125,292.975085 C56.3631094,292.735367 56.767748,292.181137 57.0810166,291.743392 C58.2526661,290.10645 61.3281682,287.065538 62.8056274,286.083372 C62.9442364,285.991409 63.3271202,285.732073 63.6571711,285.50707 C63.9872219,285.28268 64.3309472,285.052772 64.4216956,284.996368 C65.2197847,284.501607 65.6971464,284.23001 65.7686263,284.23001 C65.8158652,284.23001 65.9830661,284.12088 66.140322,283.987227 C66.2975779,283.854187 66.6021446,283.692945 66.8165844,283.629797 C67.9652359,283.290147 68.2840986,282.555669 67.745202,281.490736 C67.5705424,281.146794 67.3436712,280.57601 67.2404915,280.222872 C67.1373118,279.869734 66.9769481,279.402561 66.8843349,279.184915 C66.7911002,278.967269 66.7146478,278.714678 66.7140262,278.623328 C66.7127831,278.531364 66.6462757,278.341921 66.5648507,278.201524 C66.4840473,278.061127 66.2950916,277.70431 66.144673,277.409415 C65.760546,276.655318 65.3341526,276.719079 63.1412724,277.855742 C61.6936482,278.606161 61.2249884,278.879598 60.0570684,279.655153 C58.6461165,280.591337 58.4229748,280.765454 56.4656676,282.453896 C55.7713798,283.052269 55.0018827,283.807592 54.4480686,284.434168 C54.1752017,284.743163 53.7817512,285.183973 53.5741486,285.413268 C52.6449094,286.437736 52.174385,287.004229 52.0413701,287.257434 C51.9624314,287.407027 51.7467484,287.704987 51.5627653,287.918342 C50.9965199,288.574958 50.7938898,288.865561 50.5595599,289.357257 C50.435247,289.617206 50.243805,289.910875 50.1337881,290.008969 C50.0231496,290.107676 49.9330227,290.244394 49.9330227,290.31306 C49.9330227,290.381726 49.8559487,290.501278 49.7614708,290.578527 C49.666993,290.655163 49.52279,290.879553 49.4401219,291.076354 C49.3580753,291.272542 49.0435636,291.870302 48.7427263,292.4043 C48.4412674,292.938299 48.0173603,293.765967 47.8010558,294.243562 C47.5847513,294.721157 47.3286666,295.227567 47.2323241,295.367964 C47.13536,295.508361 46.9743747,295.922194 46.8736813,296.287594 C46.7729878,296.652381 46.5846537,297.158178 46.4547467,297.411383 C46.3248396,297.663975 46.1414781,298.089458 46.0470002,298.356764 C45.9525224,298.623456 45.8369114,298.841715 45.7896724,298.841715 C45.5851777,298.841715 45.0841965,298.023244 44.9138878,297.411383 C44.8119512,297.045983 44.646615,296.632149 44.5452999,296.491752 C44.4446065,296.351355 44.2917015,296.006187 44.205304,295.725394 C44.0766402,295.305429 43.1063777,293.261396 42.6538786,292.4558 C42.590479,292.342992 42.4064958,291.998437 42.244889,291.689441 C41.9129735,291.054283 41.6407281,290.598146 41.2385758,290.003451 C41.086914,289.778448 40.9116327,289.476196 40.8488547,289.331508 C40.7040301,288.999828 39.2240846,286.943533 38.8324989,286.532152 C38.670892,286.361714 38.5384988,286.190662 38.5378772,286.152038 C38.5378772,286.076015 37.9996022,285.429208 37.1952975,284.536553 C36.9162149,284.227557 36.5258723,283.767742 36.3275932,283.514537 C35.7768868,282.813165 33.8512794,281.008237 32.785296,280.194057 C32.1525431,279.710944 31.4445809,279.100922 31.4072871,279.005894 C31.3780735,278.93171 29.6283689,277.72822 29.1230368,277.435165 C29.0260727,277.378761 28.711561,277.183186 28.4237765,277.000486 C28.1366136,276.817786 27.8668546,276.668806 27.8252097,276.668806 C27.7835649,276.668806 27.5548291,276.536992 27.3161483,276.37575 C26.5764863,275.876084 26.4577674,275.875471 25.9953233,276.369619 M26.5931424,276.109163 C26.5931424,276.156995 26.8296085,276.323473 27.1181347,276.479392 C27.4072882,276.634689 27.9360438,276.945905 28.2941927,277.170775 C28.6523415,277.395646 29.0876398,277.644121 29.2613827,277.724255 C29.4351257,277.803767 29.6703373,277.971488 29.7838661,278.097589 C29.8980221,278.223691 30.1865483,278.410668 30.4255233,278.512543 C30.6670072,278.615661 30.8909286,278.793942 30.9291897,278.91321 C30.9668236,279.031236 31.0377007,279.128142 31.0859975,279.128142 C31.1731825,279.128142 31.6781034,279.54496 32.2463746,280.086015 C32.4107091,280.242555 32.5762981,280.37052 32.6151864,280.37052 C32.6540747,280.37052 32.8811323,280.545074 33.1207345,280.758763 C33.3603367,280.972452 33.695278,281.270002 33.8646304,281.420329 C34.2089802,281.726575 36.047394,283.641701 36.5341251,284.201393 C36.7072409,284.400173 36.9756957,284.709525 37.131249,284.888428 C37.286175,285.06733 37.5301678,285.346865 37.6738037,285.509617 C37.8168123,285.672368 38.0175262,285.936373 38.1191376,286.095398 C38.2207491,286.254422 38.5506725,286.6818 38.8517434,287.044575 C39.4595301,287.776957 40.3401623,289.06903 40.638097,289.664129 C40.7447262,289.876575 40.9184692,290.144308 41.0250985,290.259228 C41.1317277,290.374148 41.2966894,290.652441 41.3920285,290.878553 C41.4873676,291.104666 41.6479387,291.34693 41.7489229,291.417124 C41.8505343,291.487319 41.9602997,291.68113 41.9941702,291.847608 C42.0280407,292.014087 42.1986475,292.374376 42.3736449,292.648321 C42.5492696,292.921644 42.6922782,293.226027 42.6922782,293.324175 C42.6922782,293.422944 42.8007892,293.634769 42.9337621,293.795657 C43.0667351,293.956545 43.2342057,294.288881 43.30571,294.534251 C43.3772144,294.77962 43.5277498,295.071579 43.6406513,295.182772 C43.7529257,295.293965 43.8971888,295.629407 43.9611663,295.927578 C44.0251439,296.225748 44.1668981,296.595356 44.2760363,296.748168 C44.3858017,296.901602 44.5570357,297.356934 44.6567654,297.760085 C45.0550571,299.362753 46.2467958,299.736709 46.2467958,298.258279 C46.2467958,298.120996 46.3841594,297.855748 46.55163,297.670013 C46.7667702,297.430855 46.8777901,297.174304 46.929223,296.797242 C46.9693658,296.502799 47.0427518,296.212082 47.0935575,296.149963 C47.2773362,295.923851 48.0444396,294.386408 48.1993656,293.93294 C48.2871779,293.67701 48.4170147,293.397475 48.4872646,293.311751 C48.6490902,293.116697 48.9645873,292.438359 48.9645873,292.286789 C48.9645873,292.224049 49.0147658,292.173111 49.0756072,292.173111 C49.1370758,292.173111 49.3290085,291.881774 49.5027514,291.525832 C49.9556122,290.597776 50.1763974,290.214502 50.403455,289.9623 C50.5132204,289.839925 50.6788094,289.574678 50.7716396,289.37217 C50.865097,289.170284 51.0375855,288.918081 51.1548777,288.812479 C51.2727971,288.707498 51.3687634,288.545989 51.3687634,288.454674 C51.3687634,288.362738 51.4917007,288.19688 51.6422361,288.085066 C51.8724298,287.913618 52.1791457,287.511709 52.7800329,286.594834 C52.8377382,286.507246 52.9907825,286.348843 53.1199921,286.24262 C53.2492017,286.136396 53.3552037,286.005947 53.3552037,285.951903 C53.3552037,285.77797 56.5547086,282.519213 57.2597161,281.975051 C57.7953713,281.56196 57.954688,281.408527 57.954688,281.304788 C57.954688,281.257578 58.0964421,281.16999 58.2701851,281.110356 C58.4433008,281.050722 58.6126532,280.92959 58.6465236,280.842002 C58.6810213,280.753793 58.9388133,280.558119 59.2204399,280.406549 C59.5020666,280.254979 59.7322604,280.094712 59.7322604,280.050607 C59.7322604,280.006503 59.826345,279.940657 59.9417555,279.904628 C60.057166,279.867978 60.5363704,279.556141 61.0061663,279.21076 C61.4765895,278.866 62.0285527,278.538633 62.2336572,278.48459 C62.4387617,278.429925 62.7103527,278.277113 62.8370534,278.145421 C62.9643812,278.013107 63.2466351,277.84725 63.4642843,277.777677 C63.6825606,277.707482 63.9792408,277.569578 64.1228767,277.471431 C64.3455437,277.319861 64.7394447,277.205562 65.7216883,277.008645 C65.9493731,276.962677 66.5320707,278.117467 66.7697912,279.084037 C66.9993577,280.016442 67.5506936,281.421572 67.7833963,281.666941 C68.1239827,282.025989 68.056869,282.487532 67.6247069,282.751537 C67.4233658,282.875154 67.2590313,283.012437 67.2590313,283.057162 C67.2590313,283.101888 66.9767774,283.239792 66.6318004,283.364651 C66.2868234,283.488889 66.0045695,283.628035 66.0045695,283.673382 C66.0045695,283.718729 65.8044828,283.842345 65.5598627,283.947947 C65.3158699,284.05355 64.9828103,284.24736 64.8203575,284.37781 C64.6579047,284.50826 64.4709899,284.615104 64.4057579,284.615104 C64.3405258,284.615104 64.1912449,284.708904 64.0739527,284.823203 C63.9572878,284.93688 63.488119,285.274807 63.0327494,285.573599 C62.5767525,285.872391 61.9652024,286.333313 61.67354,286.598561 C61.3818776,286.863187 60.7000776,287.480028 60.1581501,287.969525 C59.0749224,288.947898 58.1641831,289.917574 58.1641831,290.09337 C58.1641831,290.155489 58.1209041,290.205806 58.0682167,290.205806 C57.9063912,290.205806 56.2824903,292.248896 56.2824903,292.452646 C56.2824903,292.509796 56.1601803,292.691804 56.0102721,292.85704 C55.6358153,293.270752 54.8768659,294.464056 54.5438063,295.163515 C54.3920164,295.483428 54.181894,295.853035 54.0777737,295.985348 C53.9736534,296.117662 53.8137095,296.480436 53.7221338,296.791652 C53.6305581,297.102867 53.4649691,297.448248 53.3539492,297.558199 C53.2423021,297.668149 53.122501,297.88805 53.0867489,298.045832 C53.0296708,298.301141 52.6282431,299.190684 52.0925879,300.248569 C51.9922309,300.44797 51.875566,300.797078 51.8341687,301.025055 C51.7921443,301.253031 51.6303187,301.695318 51.4741382,302.008397 C51.3179577,302.321476 51.1624044,302.754445 51.128534,302.969376 C51.0952907,303.184929 50.9497731,303.604232 50.80551,303.90116 C50.6612469,304.19871 50.4743321,304.767719 50.3896559,305.166522 C50.3049798,305.564704 50.1381363,306.15794 50.0183352,306.484064 C49.8985341,306.809567 49.8006861,307.159918 49.8006861,307.261793 C49.8006861,307.363668 49.7141283,307.609658 49.6087535,307.807818 C49.5027514,308.006598 49.3308902,308.63959 49.2255154,309.215432 C49.0768616,310.031674 48.9714869,310.339784 48.746311,310.613107 L48.4571575,310.964079 L45.7575557,310.994517 C44.2729001,311.01129 42.7794633,310.988306 42.4382497,310.942959 L41.8185456,310.860341 L41.6410392,309.980737 C41.5431912,309.496831 41.3694482,308.820977 41.2552922,308.479323 C41.1405089,308.137669 40.9949914,307.583569 40.9310138,307.247505 C40.8670363,306.912063 40.7516258,306.562334 40.6744764,306.471019 C40.5966997,306.379704 40.4731353,305.979037 40.399122,305.580234 C40.3251088,305.182052 40.1814729,304.710569 40.0792342,304.532909 C39.9769956,304.355249 39.8603307,303.971354 39.8195606,303.680017 C39.7787906,303.388058 39.5856035,302.834578 39.3899075,302.449441 C39.1942114,302.064925 39.0336403,301.667364 39.0336403,301.566732 C39.0336403,301.466099 38.896904,301.130036 38.7300606,300.820684 C38.5638444,300.511332 38.3951192,300.028046 38.3562309,299.746648 C38.3167154,299.464628 38.2006777,299.144716 38.0971846,299.034765 C37.9936915,298.924815 37.8738904,298.722307 37.8306114,298.584403 C37.7867053,298.445878 37.6687859,298.216659 37.5678017,298.074407 C37.4668175,297.932155 37.3118915,297.57435 37.2234519,297.279906 C37.0597446,296.733881 36.8634214,296.303397 36.734839,296.21084 C36.6959507,296.182265 36.5378885,295.90273 36.3842169,295.589651 C35.8209636,294.441694 35.1034114,293.187513 34.8763538,292.953325 C34.7477715,292.821633 34.6430239,292.683107 34.6430239,292.647078 C34.6430239,292.610428 34.395895,292.230882 34.0941969,291.804746 C33.7918716,291.377989 33.4406223,290.878553 33.3132944,290.695303 C32.7588223,289.895832 32.3567673,289.405714 31.7941411,288.842917 C31.4635905,288.511823 31.1932539,288.19688 31.1932539,288.142216 C31.1932539,288.088172 31.052127,287.960828 30.8796385,287.860196 C30.70715,287.758942 30.566023,287.632841 30.566023,287.58004 C30.566023,287.383744 28.0596083,285.167963 26.8020103,284.252951 C26.567426,284.082124 26.2481654,283.833027 26.0926122,283.698851 C25.9364317,283.565295 25.6679768,283.383908 25.4954883,283.29632 C25.3229998,283.208732 25.0488999,283.026724 24.8864471,282.892547 C24.7239943,282.75837 24.505718,282.64842 24.4022249,282.64842 C24.2981045,282.64842 24.1406696,282.539091 24.05223,282.405535 C23.9637905,282.271358 23.7568043,282.106743 23.5918425,282.039034 C23.1283189,281.849571 22.829757,281.238942 23.1063658,281.046995 C23.2211491,280.967482 23.37043,280.72087 23.4375437,280.498485 C23.5046574,280.276099 23.674637,279.961777 23.8151367,279.799647 C23.9562637,279.637517 24.101154,279.387799 24.1375334,279.244304 C24.1732856,279.101431 24.3363656,278.833698 24.4994457,278.649826 C24.6625257,278.465954 24.8281147,278.172132 24.867003,277.996957 C24.9058913,277.821781 24.973005,277.678908 25.0169112,277.678908 C25.0601901,277.678908 25.1511386,277.573927 25.2188795,277.445962 C25.2859932,277.317376 25.4227296,277.09499 25.5230865,276.950253 C25.6228162,276.806137 25.7990681,276.538405 25.9138514,276.355775 C26.1064113,276.049529 26.5931424,275.873111 26.5931424,276.109163 M145.872906,282.046044 C144.018884,282.194404 143.406245,282.352614 141.896019,283.072869 C141.611691,283.208301 141.331698,283.319725 141.274708,283.319725 C141.217099,283.319725 141.008963,283.451464 140.811358,283.612752 C140.614372,283.774039 140.260664,284.003043 140.026511,284.121855 C139.792358,284.24005 139.573071,284.40811 139.539001,284.495525 C139.505551,284.582325 139.415111,284.653735 139.338299,284.653735 C139.261487,284.653735 138.90654,284.953533 138.550355,285.320432 C138.194169,285.687331 137.861523,285.987129 137.811348,285.987129 C137.761172,285.987129 137.693032,286.096707 137.658962,286.230292 C137.625512,286.363878 137.461976,286.573183 137.295963,286.695072 C137.12995,286.816961 136.99367,286.978249 136.99367,287.053352 C136.99367,287.129071 136.856771,287.361153 136.690138,287.570458 C136.522886,287.779763 136.333333,288.10911 136.26891,288.303025 C136.204487,288.496324 136.115286,288.655149 136.070066,288.655149 C136.025465,288.655149 135.862549,289.035591 135.707686,289.501602 C135.552823,289.966998 135.386809,290.396072 135.337873,290.454554 C134.960626,290.908869 134.868327,296.103936 135.220177,297.087053 C135.327961,297.386851 135.497072,297.863327 135.596184,298.145273 C135.831577,298.815664 136.454746,300.037634 136.69881,300.306652 C136.804117,300.423001 136.890841,300.570745 136.890841,300.634152 C136.890841,300.697559 137.076677,300.962884 137.303396,301.223284 C137.530736,301.484299 137.716571,301.733618 137.716571,301.777941 C137.716571,301.86905 138.586903,302.745052 139.026714,303.097177 C139.186533,303.224606 139.54024,303.513324 139.813419,303.738019 C140.086598,303.963329 140.368449,304.147394 140.440305,304.147394 C140.511542,304.147394 140.726492,304.285905 140.917284,304.455195 C141.108075,304.624486 141.305061,304.762996 141.355237,304.762996 C141.405413,304.762996 141.687264,304.872574 141.982123,305.005544 C142.276363,305.139129 142.825199,305.324426 143.201826,305.417381 C143.578453,305.510953 144.043043,305.667316 144.234454,305.765197 C144.927621,306.119784 149.374053,306.056377 149.847315,305.685168 C149.904305,305.640845 150.275977,305.524496 150.673665,305.426615 C151.451698,305.234548 152.300348,304.829481 152.802725,304.409641 C152.974932,304.26559 153.204749,304.147394 153.313773,304.147394 C153.422797,304.147394 153.684825,303.986106 153.895439,303.788498 C154.106053,303.59089 154.32534,303.429602 154.382329,303.429602 C154.493831,303.429602 154.602854,303.333568 155.474424,302.465569 C156.251218,301.691757 156.506433,301.401193 156.506433,301.292847 C156.506433,301.241752 156.639615,301.033678 156.802531,300.830529 C156.965447,300.626765 157.160575,300.309114 157.236148,300.123818 C157.311721,299.938522 157.44862,299.732911 157.540919,299.666426 C157.632598,299.599941 157.769497,299.345697 157.844451,299.101919 C157.920024,298.85814 158.068693,298.469079 158.174619,298.238229 C159.24875,295.902634 159.277245,292.481733 158.243998,289.937449 C158.129399,289.655503 157.998075,289.271367 157.951616,289.084224 C157.905157,288.897697 157.736047,288.551112 157.574989,288.314721 C157.413931,288.078946 157.224379,287.769913 157.153142,287.62894 C156.655101,286.640899 154.886564,284.787321 153.770929,284.083072 C153.60058,283.975341 153.400497,283.806051 153.326162,283.706323 C153.251828,283.606596 153.145282,283.524721 153.089531,283.524721 C153.03378,283.524721 152.699276,283.391135 152.346807,283.228 C150.190492,282.227647 148.181607,281.861363 145.872906,282.046044 M149.602981,281.150683 C149.944762,281.239507 150.273932,281.35101 150.334469,281.398256 C150.395636,281.446133 150.586706,281.518578 150.759488,281.560155 C150.93227,281.601733 151.333958,281.754812 151.653038,281.900332 C151.971487,282.046482 152.42173,282.239879 152.653157,282.331223 C153.105292,282.508871 153.213754,282.582576 154.334317,283.475225 C154.93338,283.952733 156.023674,285.044449 156.411489,285.555344 C156.45563,285.61393 156.656159,285.873472 156.857318,286.133645 C157.058477,286.393817 157.223061,286.64076 157.223692,286.682967 C157.224323,286.725804 157.371881,286.999836 157.552231,287.292136 C157.73258,287.584436 157.919236,287.97501 157.96653,288.160217 C158.014455,288.344794 158.192913,288.921205 158.362542,289.44092 C159.164025,291.893343 159.20123,293.440518 158.522082,296.05547 C158.431907,296.401947 158.320292,296.732674 158.274259,296.790631 C158.228226,296.847957 158.114719,297.155376 158.022653,297.472874 C157.929956,297.790373 157.621596,298.428519 157.336568,298.890278 C157.05154,299.352036 156.724893,299.897579 156.610756,300.101686 C156.101237,301.010714 154.240359,302.676951 153.162045,303.189106 C152.863775,303.330216 152.588837,303.496525 152.550371,303.558261 C151.988513,304.466029 147.238259,305.315841 145.138386,304.884321 C143.505151,304.547923 141.580583,303.899068 141.197183,303.555111 C141.081784,303.451168 140.865491,303.320137 140.716671,303.264071 C140.199585,303.068784 137.964765,301.125996 137.616678,300.570374 C137.508216,300.397135 137.292554,300.089716 137.136797,299.8875 C136.664484,299.274552 135.878135,297.773364 135.678237,297.105609 C135.57482,296.759133 135.412757,296.295484 135.318168,296.074999 C134.836396,294.956195 134.920895,290.543345 135.442395,289.536673 C135.499779,289.426431 135.579864,289.14673 135.620222,288.916166 C135.906511,287.274497 138.631932,283.792094 140.303633,282.932202 C140.506053,282.827629 140.818197,282.631713 140.996654,282.495642 C141.175743,282.360201 141.355461,282.248699 141.395819,282.248699 C141.436177,282.248699 141.810119,282.091839 142.22694,281.900332 C143.957286,281.102807 144.406899,281.017762 146.981608,281.001383 C148.476743,280.991934 149.139496,281.029731 149.602981,281.150683 M82.9958159,295.045969 C81.8027635,295.116162 81.4761161,295.191754 80.9211798,295.526521 C80.7268914,295.64411 80.4712807,295.7401 80.3547076,295.7407 C80.2375274,295.7407 79.9867739,295.851689 79.7979498,295.986676 C79.6091258,296.121663 79.3176931,296.307644 79.1507265,296.399435 C78.8125432,296.585417 77.9886389,297.345542 77.9874246,297.472129 C77.9874246,297.517125 77.8744944,297.699507 77.7372782,297.877689 C77.5994549,298.055872 77.4136666,298.513626 77.3244153,298.895189 C77.2345569,299.276751 77.1155553,299.643915 77.0590902,299.711108 C76.8720876,299.933686 77.1604845,301.938688 77.483489,302.658617 C77.8022434,303.369547 78.8665797,304.481837 79.5010528,304.765609 C79.7493777,304.877198 80.0110599,305.025983 80.0827038,305.096776 C80.1543477,305.167569 80.4749236,305.300756 80.7948923,305.392547 C81.1148611,305.483738 81.4269368,305.599527 81.4888663,305.649922 C82.0377311,306.095678 85.8524629,306.123875 86.527008,305.687718 C86.6563313,305.603726 87.0728371,305.47114 87.4529138,305.392547 C87.8329905,305.313955 88.2610322,305.168169 88.4037128,305.067979 C88.5457862,304.968389 88.8445046,304.824403 89.0673292,304.748211 C89.6368371,304.55323 90.3229181,304.100275 91.1717157,303.360548 C91.666544,302.92979 92.6258431,301.801902 92.7733809,301.478534 C92.8765966,301.252356 93.0235272,301.015379 93.1006355,300.952386 C93.1777437,300.889392 93.3186028,300.635617 93.4139256,300.389041 C93.5092483,300.142466 93.6252142,299.940286 93.6719649,299.940286 C94.2056509,299.940286 94.0459701,297.838093 93.4964981,297.631713 C93.3422817,297.574119 93.1376717,297.455931 93.0411346,297.369539 C92.7679165,297.125363 91.1182864,296.340641 90.8778544,296.340641 C90.7594599,296.340641 90.5542428,296.259649 90.4218838,296.160059 C90.1510943,295.956679 89.4729063,295.7407 89.1055797,295.7407 C88.9720064,295.7407 88.6587163,295.635111 88.40857,295.506123 C87.6119874,295.094564 85.3879921,294.905583 82.9958159,295.045969 M210.92755,295.050337 C209.76934,295.123459 209.281189,295.225951 208.889811,295.476485 C208.765476,295.5568 208.478833,295.67068 208.252826,295.730017 C208.026818,295.789354 207.668514,295.973359 207.456594,296.137585 C207.244674,296.302411 207.043779,296.437268 207.008868,296.437268 C206.648114,296.437268 205.308608,298.208392 205.206323,298.821543 C205.172636,299.021131 205.099138,299.408921 205.042176,299.684029 C204.893343,300.403268 205.163449,302.362593 205.461729,302.721613 C205.579326,302.863662 205.739798,303.115995 205.817583,303.28142 C206.038078,303.748925 206.624227,304.266776 207.76345,304.9998 C207.987619,305.144247 208.49292,305.342038 208.886136,305.439734 C209.279351,305.536831 209.803639,305.68907 210.051083,305.777177 C211.001048,306.115219 213.803782,306.055882 214.398505,305.685474 C214.574289,305.57579 215.015278,305.458315 215.948094,305.271912 C216.070591,305.247338 216.232287,305.167023 216.307623,305.093301 C216.382958,305.019579 216.679401,304.882924 216.966657,304.790022 C217.2533,304.696521 217.569343,304.532295 217.669178,304.424409 C217.768401,304.317123 217.90866,304.229016 217.980933,304.229016 C218.138954,304.229016 218.94621,303.590692 219.497447,303.030286 C219.632194,302.893031 219.790215,302.735398 219.847789,302.680856 C220.445575,302.110859 221.253443,300.916324 221.405952,300.376296 C221.463526,300.173112 221.59276,299.920779 221.693208,299.814691 C222.170334,299.313622 222.064987,297.635998 221.556624,297.635998 C221.485575,297.635998 221.246706,297.50234 221.026211,297.339313 C220.805716,297.175686 220.553985,297.040829 220.466399,297.03963 C220.379426,297.037832 220.150357,296.922754 219.957424,296.783701 C219.765104,296.644648 219.400062,296.470233 219.146493,296.396511 C218.892924,296.32219 218.493584,296.163358 218.259002,296.043485 C218.023807,295.923012 217.534431,295.78336 217.170002,295.733014 C216.806186,295.682667 216.355397,295.5568 216.167976,295.453709 C215.493629,295.082103 213.202934,294.90589 210.92755,295.050337 M87.8427654,295.145222 C89.5442034,295.498582 90.395548,295.713696 90.91849,295.920779 C91.2337564,296.045832 91.6778818,296.199567 91.9055743,296.26324 C92.5467412,296.441068 94.766117,297.588341 94.8943504,297.808044 C95.0901409,298.143622 95.0113242,298.685135 94.678543,299.286306 C94.5027694,299.603528 94.3588978,299.905261 94.3588978,299.957461 C94.3588978,300.009089 94.2300389,300.20642 94.0724057,300.394573 C93.9147724,300.583299 93.6733184,300.907978 93.535702,301.116208 C93.0703087,301.822355 91.4770871,303.193347 90.6576445,303.593172 C86.5166445,305.6118 81.8502004,305.442577 79.4300299,303.185316 C76.8184476,300.749654 77.938144,296.72215 81.5355595,295.614457 C81.7932773,295.535295 82.14545,295.410816 82.3174704,295.337964 C83.1212748,294.999518 86.5635592,294.879055 87.8427654,295.145222 M215.027243,295.190086 C215.432055,295.291872 216.212042,295.463816 216.761249,295.573078 C217.310456,295.681765 217.92524,295.848533 218.127646,295.943418 C218.330051,296.037728 218.684419,296.171143 218.91583,296.239 C219.3074,296.354588 219.626457,296.501804 221.208501,297.296541 C222.229358,297.809497 222.252688,298.274147 221.336502,299.916526 C220.685147,301.084479 220.471391,301.355333 219.485215,302.264507 C218.480752,303.189783 218.072158,303.43706 216.236003,304.230072 C214.62054,304.927623 211.679666,305.209978 209.982862,304.830437 C209.578051,304.740152 209.042716,304.623414 208.793019,304.571659 C208.543322,304.519328 208.154274,304.370387 207.927908,304.240423 C207.702172,304.110458 207.489677,304.004072 207.455628,304.004072 C207.207822,304.004072 205.889347,302.828069 205.720361,302.456578 C205.652261,302.305912 205.560201,302.182848 205.515433,302.182848 C205.16737,302.182848 204.898126,300.447884 205.037478,299.094762 C205.22475,297.270088 207.457519,295.534549 210.192835,295.08715 C211.151267,294.930733 214.256083,294.996865 215.027243,295.190086" id="scooped-pathlogo" stroke="#979797" stroke-width="2" fill="#C2ADAC"></path>
    </g>
</svg>