<?xml version="1.0" encoding="UTF-8"?>
<svg width="1341px" height="1505px" viewBox="0 0 1341 1505" version="1.1" xmlns="http://www.w3.org/2000/svg" xmlns:xlink="http://www.w3.org/1999/xlink">
    <!-- Generator: Sketch 57.1 (83088) - https://sketch.com -->
    <title>wallet0</title>
    <desc>Created with Sketch.</desc>
    <defs>
        <path d="M512.070415,194.573639 C588.303371,258.161509 675.72277,254.240241 700.700602,254.240241 C695.236362,615.880599 653.607847,544.168468 512.070415,645.573639 C370.532982,544.168468 329.164842,615.880599 323.700602,254.240241 C348.41806,254.240241 435.837459,258.161509 512.070415,194.573639 Z" id="path-1"></path>
        <filter x="-17.4%" y="-14.5%" width="134.7%" height="129.0%" filterUnits="objectBoundingBox" id="filter-2">
            <feMorphology radius="23" operator="dilate" in="SourceAlpha" result="shadowSpreadOuter1"></feMorphology>
            <feOffset dx="-5" dy="-5" in="shadowSpreadOuter1" result="shadowOffsetOuter1"></feOffset>
            <feMorphology radius="23" operator="erode" in="SourceAlpha" result="shadowInner"></feMorphology>
            <feOffset dx="-5" dy="-5" in="shadowInner" result="shadowInner"></feOffset>
            <feComposite in="shadowOffsetOuter1" in2="shadowInner" operator="out" result="shadowOffsetOuter1"></feComposite>
            <feGaussianBlur stdDeviation="10" in="shadowOffsetOuter1" result="shadowBlurOuter1"></feGaussianBlur>
            <feColorMatrix values="0 0 0 0 1   0 0 0 0 1   0 0 0 0 1  0 0 0 0.3 0" type="matrix" in="shadowBlurOuter1" result="shadowMatrixOuter1"></feColorMatrix>
            <feMorphology radius="23" operator="dilate" in="SourceAlpha" result="shadowSpreadOuter2"></feMorphology>
            <feOffset dx="5" dy="5" in="shadowSpreadOuter2" result="shadowOffsetOuter2"></feOffset>
            <feMorphology radius="23" operator="erode" in="SourceAlpha" result="shadowInner"></feMorphology>
            <feOffset dx="5" dy="5" in="shadowInner" result="shadowInner"></feOffset>
            <feComposite in="shadowOffsetOuter2" in2="shadowInner" operator="out" result="shadowOffsetOuter2"></feComposite>
            <feGaussianBlur stdDeviation="10" in="shadowOffsetOuter2" result="shadowBlurOuter2"></feGaussianBlur>
            <feColorMatrix values="0 0 0 0 0   0 0 0 0 0   0 0 0 0 0  0 0 0 0.6 0" type="matrix" in="shadowBlurOuter2" result="shadowMatrixOuter2"></feColorMatrix>
            <feMerge>
                <feMergeNode in="shadowMatrixOuter1"></feMergeNode>
                <feMergeNode in="shadowMatrixOuter2"></feMergeNode>
            </feMerge>
        </filter>
        <circle id="path-3" cx="177" cy="177" r="177"></circle>
        <filter x="-2.5%" y="-2.5%" width="105.1%" height="105.1%" filterUnits="objectBoundingBox" id="filter-4">
            <feOffset dx="-2" dy="0" in="SourceAlpha" result="shadowOffsetOuter1"></feOffset>
            <feGaussianBlur stdDeviation="2" in="shadowOffsetOuter1" result="shadowBlurOuter1"></feGaussianBlur>
            <feColorMatrix values="0 0 0 0 0   0 0 0 0 0   0 0 0 0 0  0 0 0 0.5 0" type="matrix" in="shadowBlurOuter1" result="shadowMatrixOuter1"></feColorMatrix>
            <feOffset dx="0" dy="-2" in="SourceAlpha" result="shadowOffsetOuter2"></feOffset>
            <feGaussianBlur stdDeviation="2" in="shadowOffsetOuter2" result="shadowBlurOuter2"></feGaussianBlur>
            <feColorMatrix values="0 0 0 0 0   0 0 0 0 0   0 0 0 0 0  0 0 0 0.5 0" type="matrix" in="shadowBlurOuter2" result="shadowMatrixOuter2"></feColorMatrix>
            <feOffset dx="2" dy="0" in="SourceAlpha" result="shadowOffsetOuter3"></feOffset>
            <feGaussianBlur stdDeviation="2" in="shadowOffsetOuter3" result="shadowBlurOuter3"></feGaussianBlur>
            <feColorMatrix values="0 0 0 0 0   0 0 0 0 0   0 0 0 0 0  0 0 0 0.5 0" type="matrix" in="shadowBlurOuter3" result="shadowMatrixOuter3"></feColorMatrix>
            <feOffset dx="0" dy="2" in="SourceAlpha" result="shadowOffsetOuter4"></feOffset>
            <feGaussianBlur stdDeviation="2" in="shadowOffsetOuter4" result="shadowBlurOuter4"></feGaussianBlur>
            <feColorMatrix values="0 0 0 0 0   0 0 0 0 0   0 0 0 0 0  0 0 0 0.5 0" type="matrix" in="shadowBlurOuter4" result="shadowMatrixOuter4"></feColorMatrix>
            <feMerge>
                <feMergeNode in="shadowMatrixOuter1"></feMergeNode>
                <feMergeNode in="shadowMatrixOuter2"></feMergeNode>
                <feMergeNode in="shadowMatrixOuter3"></feMergeNode>
                <feMergeNode in="shadowMatrixOuter4"></feMergeNode>
            </feMerge>
        </filter>
        <circle id="path-5" cx="177" cy="177" r="177"></circle>
        <filter x="-2.5%" y="-2.5%" width="105.1%" height="105.1%" filterUnits="objectBoundingBox" id="filter-6">
            <feOffset dx="-2" dy="0" in="SourceAlpha" result="shadowOffsetOuter1"></feOffset>
            <feGaussianBlur stdDeviation="2" in="shadowOffsetOuter1" result="shadowBlurOuter1"></feGaussianBlur>
            <feColorMatrix values="0 0 0 0 0   0 0 0 0 0   0 0 0 0 0  0 0 0 0.5 0" type="matrix" in="shadowBlurOuter1" result="shadowMatrixOuter1"></feColorMatrix>
            <feOffset dx="0" dy="-2" in="SourceAlpha" result="shadowOffsetOuter2"></feOffset>
            <feGaussianBlur stdDeviation="2" in="shadowOffsetOuter2" result="shadowBlurOuter2"></feGaussianBlur>
            <feColorMatrix values="0 0 0 0 0   0 0 0 0 0   0 0 0 0 0  0 0 0 0.5 0" type="matrix" in="shadowBlurOuter2" result="shadowMatrixOuter2"></feColorMatrix>
            <feOffset dx="2" dy="0" in="SourceAlpha" result="shadowOffsetOuter3"></feOffset>
            <feGaussianBlur stdDeviation="2" in="shadowOffsetOuter3" result="shadowBlurOuter3"></feGaussianBlur>
            <feColorMatrix values="0 0 0 0 0   0 0 0 0 0   0 0 0 0 0  0 0 0 0.5 0" type="matrix" in="shadowBlurOuter3" result="shadowMatrixOuter3"></feColorMatrix>
            <feOffset dx="0" dy="2" in="SourceAlpha" result="shadowOffsetOuter4"></feOffset>
            <feGaussianBlur stdDeviation="2" in="shadowOffsetOuter4" result="shadowBlurOuter4"></feGaussianBlur>
            <feColorMatrix values="0 0 0 0 0   0 0 0 0 0   0 0 0 0 0  0 0 0 0.5 0" type="matrix" in="shadowBlurOuter4" result="shadowMatrixOuter4"></feColorMatrix>
            <feMerge>
                <feMergeNode in="shadowMatrixOuter1"></feMergeNode>
                <feMergeNode in="shadowMatrixOuter2"></feMergeNode>
                <feMergeNode in="shadowMatrixOuter3"></feMergeNode>
                <feMergeNode in="shadowMatrixOuter4"></feMergeNode>
            </feMerge>
        </filter>
        <circle id="path-7" cx="177" cy="177" r="177"></circle>
        <filter x="-2.5%" y="-2.5%" width="105.1%" height="105.1%" filterUnits="objectBoundingBox" id="filter-8">
            <feOffset dx="-2" dy="0" in="SourceAlpha" result="shadowOffsetOuter1"></feOffset>
            <feGaussianBlur stdDeviation="2" in="shadowOffsetOuter1" result="shadowBlurOuter1"></feGaussianBlur>
            <feColorMatrix values="0 0 0 0 0   0 0 0 0 0   0 0 0 0 0  0 0 0 0.5 0" type="matrix" in="shadowBlurOuter1" result="shadowMatrixOuter1"></feColorMatrix>
            <feOffset dx="0" dy="-2" in="SourceAlpha" result="shadowOffsetOuter2"></feOffset>
            <feGaussianBlur stdDeviation="2" in="shadowOffsetOuter2" result="shadowBlurOuter2"></feGaussianBlur>
            <feColorMatrix values="0 0 0 0 0   0 0 0 0 0   0 0 0 0 0  0 0 0 0.5 0" type="matrix" in="shadowBlurOuter2" result="shadowMatrixOuter2"></feColorMatrix>
            <feOffset dx="2" dy="0" in="SourceAlpha" result="shadowOffsetOuter3"></feOffset>
            <feGaussianBlur stdDeviation="2" in="shadowOffsetOuter3" result="shadowBlurOuter3"></feGaussianBlur>
            <feColorMatrix values="0 0 0 0 0   0 0 0 0 0   0 0 0 0 0  0 0 0 0.5 0" type="matrix" in="shadowBlurOuter3" result="shadowMatrixOuter3"></feColorMatrix>
            <feOffset dx="0" dy="2" in="SourceAlpha" result="shadowOffsetOuter4"></feOffset>
            <feGaussianBlur stdDeviation="2" in="shadowOffsetOuter4" result="shadowBlurOuter4"></feGaussianBlur>
            <feColorMatrix values="0 0 0 0 0   0 0 0 0 0   0 0 0 0 0  0 0 0 0.5 0" type="matrix" in="shadowBlurOuter4" result="shadowMatrixOuter4"></feColorMatrix>
            <feMerge>
                <feMergeNode in="shadowMatrixOuter1"></feMergeNode>
                <feMergeNode in="shadowMatrixOuter2"></feMergeNode>
                <feMergeNode in="shadowMatrixOuter3"></feMergeNode>
                <feMergeNode in="shadowMatrixOuter4"></feMergeNode>
            </feMerge>
        </filter>
    </defs>
    <g id="Page-1" stroke="none" stroke-width="1" fill="none" fill-rule="evenodd">
        <g id="wallet0" transform="translate(-2.000000, 6.000000)">
            <g id="wallet-all" transform="translate(682.946409, 1036.465358) rotate(-4.000000) translate(-682.946409, -1036.465358) translate(27.946409, 616.465358)">
                <rect id="wallet" stroke="#979797" stroke-width="24" fill="#D8D8D8" x="12" y="12" width="1134" height="816" rx="36"></rect>
                <rect id="tab" stroke="#979797" stroke-width="24" fill="#D8D8D8" x="917.028627" y="289.543971" width="380" height="261" rx="36"></rect>
                <g id="TWT-logo" stroke-linecap="round" stroke-linejoin="round">
                    <use fill="black" fill-opacity="1" filter="url(#filter-2)" xlink:href="#path-1"></use>
                    <use stroke="#FFFFFF" stroke-width="36" xlink:href="#path-1"></use>
                </g>
            </g>
            <g id="coin1" transform="translate(408.000000, 177.000000)">
                <g id="coin">
                    <use fill="black" fill-opacity="1" filter="url(#filter-4)" xlink:href="#path-3"></use>
                    <use fill="#C4AEAD" fill-rule="evenodd" xlink:href="#path-3"></use>
                </g>
                <g id="eth-logo" transform="translate(97.000000, 47.000000)" fill-rule="nonzero">
                    <polygon id="Path" fill="#343434" points="81.7113047 0 80 5.93886364 80 178.255676 81.7113047 180 160 132.719627"></polygon>
                    <polygon id="Path" fill="#8C8C8C" points="80 0 0 132.719627 80 180 80 96.3621938"></polygon>
                    <polygon id="Path" fill="#3C3C3B" points="80.9729811 194.95571 80 196.149722 80 257.141668 80.9729811 260 160 148"></polygon>
                    <polygon id="Path" fill="#8C8C8C" points="80 260 80 194.95571 0 148"></polygon>
                    <polygon id="Path" fill="#141414" points="80 180 160 132.51488 80 96"></polygon>
                    <polygon id="Path" fill="#393939" points="0 132.51488 80 180 80 96"></polygon>
                </g>
            </g>
            <g id="coin2" transform="translate(772.000000, 57.000000)">
                <g id="coin-copy">
                    <use fill="black" fill-opacity="1" filter="url(#filter-6)" xlink:href="#path-5"></use>
                    <use fill="#D8D8D8" fill-rule="evenodd" xlink:href="#path-5"></use>
                </g>
                <g id="sol-logo" transform="translate(75.000000, 87.000000)" fill="#000000" fill-rule="nonzero">
                    <path d="M33.1435153,121.958763 C34.3744693,120.721649 36.0670309,120 37.862172,120 L200.655827,120 C203.630633,120 205.118035,123.608247 203.015156,125.721649 L170.856485,158.041237 C169.625531,159.278351 167.932969,160 166.137828,160 L3.34417264,160 C0.369367347,160 -1.1180353,156.391753 0.984844305,154.278351 L33.1435153,121.958763 Z" id="Path"></path>
                    <path d="M33.1435153,1.95876289 C34.425759,0.721649485 36.1183206,0 37.862172,0 L200.655827,0 C203.630633,0 205.118035,3.60824742 203.015156,5.72164948 L170.856485,38.0412371 C169.625531,39.2783505 167.932969,40 166.137828,40 L3.34417264,40 C0.369367347,40 -1.1180353,36.3917526 0.984844305,34.2783505 L33.1435153,1.95876289 Z" id="Path"></path>
                    <path d="M170.856485,61.9587629 C169.625531,60.7216495 167.932969,60 166.137828,60 L3.34417264,60 C0.369367347,60 -1.1180353,63.6082474 0.984844305,65.7216495 L33.1435153,98.0412371 C34.3744693,99.2783505 36.0670309,100 37.862172,100 L200.655827,100 C203.630633,100 205.118035,96.3917526 203.015156,94.2783505 L170.856485,61.9587629 Z" id="Path"></path>
                </g>
            </g>
            <g id="coin3" transform="translate(44.000000, 0.000000)">
                <g id="coin-copy-2">
                    <use fill="black" fill-opacity="1" filter="url(#filter-8)" xlink:href="#path-7"></use>
                    <use fill="#838996" fill-rule="evenodd" xlink:href="#path-7"></use>
                </g>
                <g id="polygon-matic-logo" transform="translate(66.000000, 80.000000)" fill="#FFFFFF" fill-rule="nonzero">
                    <path d="M168.093995,59.2937685 C164.036554,56.9910979 158.819843,56.9910979 154.182768,59.2937685 L121.723238,78.2908012 L99.6971279,90.379822 L67.8172324,109.376855 C63.7597911,111.679525 58.5430809,111.679525 53.9060052,109.376855 L28.9817232,94.4094955 C24.924282,92.1068249 22.0261097,87.5014837 22.0261097,82.3204748 L22.0261097,53.537092 C22.0261097,48.9317507 24.3446475,44.3264095 28.9817232,41.4480712 L53.9060052,27.0563798 C57.9634465,24.7537092 63.1801567,24.7537092 67.8172324,27.0563798 L92.7415144,42.0237389 C96.7989556,44.3264095 99.6971279,48.9317507 99.6971279,54.1127596 L99.6971279,73.1097923 L121.723238,60.4451039 L121.723238,40.8724036 C121.723238,36.2670623 119.4047,31.6617211 114.767624,28.7833828 L68.3968668,1.72700297 C64.3394256,-0.575667656 59.1227154,-0.575667656 54.4856397,1.72700297 L6.95561358,29.3590504 C2.31853786,31.6617211 0,36.2670623 0,40.8724036 L0,94.9851632 C0,99.5905045 2.31853786,104.195846 6.95561358,107.074184 L53.9060052,134.130564 C57.9634465,136.433234 63.1801567,136.433234 67.8172324,134.130564 L99.6971279,115.709199 L121.723238,103.04451 L153.603133,84.6231454 C157.660574,82.3204748 162.877285,82.3204748 167.51436,84.6231454 L192.438642,99.0148368 C196.496084,101.317507 199.394256,105.922849 199.394256,111.103858 L199.394256,139.88724 C199.394256,144.492582 197.075718,149.097923 192.438642,151.976261 L168.093995,166.367953 C164.036554,168.670623 158.819843,168.670623 154.182768,166.367953 L129.258486,151.976261 C125.201044,149.673591 122.302872,145.068249 122.302872,139.88724 L122.302872,121.465875 L100.276762,134.130564 L100.276762,153.127596 C100.276762,157.732938 102.5953,162.338279 107.232376,165.216617 L154.182768,192.272997 C158.240209,194.575668 163.456919,194.575668 168.093995,192.272997 L215.044386,165.216617 C219.101828,162.913947 222,158.308605 222,153.127596 L222,98.4391691 C222,93.8338279 219.681462,89.2284866 215.044386,86.3501484 L168.093995,59.2937685 Z" id="Path"></path>
                </g>
            </g>
        </g>
    </g>
</svg>